  0
SECTION
  2
HEADER
  9
$ACADVER
  1
AC1009
  9
$FILLMODE
 70
 0
  9
$SPLFRAME
 70
 1
  9
$EXTMIN
 10
0
 20
0
 30
0.0
  9
$EXTMAX
 10
1058.33
 20
1058.33
 30
0.0
  0
ENDSEC
  0
SECTION
  2
TABLES
  0
TABLE
  2
LAYER
 70
1
  0
LAYER
  2
0
 70
     0
 62
     7
  6
CONTINUOUS
  0
ENDTAB
  0
ENDSEC
  0
SECTION
  2
ENTITIES
  0
LINE
  8
0
 62
     0
 10
56.8688
 20
21.1915
 30
0.0
 11
52.6189
 21
21.1915
 31
0.0
  0
LINE
  8
0
 62
     0
 10
52.6189
 20
21.1915
 30
0.0
 11
52.0788
 21
21.106
 31
0.0
  0
LINE
  8
0
 62
     0
 10
52.0788
 20
21.106
 30
0.0
 11
51.5909
 21
20.8566
 31
0.0
  0
LINE
  8
0
 62
     0
 10
51.5909
 20
20.8566
 30
0.0
 11
51.205
 21
20.4722
 31
0.0
  0
LINE
  8
0
 62
     0
 10
51.205
 20
20.4722
 30
0.0
 11
50.9556
 21
19.9829
 31
0.0
  0
LINE
  8
0
 62
     0
 10
50.9556
 20
19.9829
 30
0.0
 11
50.8688
 21
19.4414
 31
0.0
  0
LINE
  8
0
 62
     0
 10
50.8688
 20
19.4414
 30
0.0
 11
50.9556
 21
18.8998
 31
0.0
  0
LINE
  8
0
 62
     0
 10
50.9556
 20
18.8998
 30
0.0
 11
51.205
 21
18.412
 31
0.0
  0
LINE
  8
0
 62
     0
 10
51.205
 20
18.412
 30
0.0
 11
51.5909
 21
18.0261
 31
0.0
  0
LINE
  8
0
 62
     0
 10
51.5909
 20
18.0261
 30
0.0
 11
52.0788
 21
17.7767
 31
0.0
  0
LINE
  8
0
 62
     0
 10
52.0788
 20
17.7767
 30
0.0
 11
52.6189
 21
17.6912
 31
0.0
  0
LINE
  8
0
 62
     0
 10
52.6189
 20
17.6912
 30
0.0
 11
56.8688
 21
17.6912
 31
0.0
  0
LINE
  8
0
 62
     0
 10
56.8688
 20
17.6912
 30
0.0
 11
56.8688
 21
0.228755
 31
0.0
  0
LINE
  8
0
 62
     0
 10
56.8688
 20
0.228755
 30
0.0
 11
0.0950846
 21
0.228755
 31
0.0
  0
LINE
  8
0
 62
     0
 10
0.0950846
 20
0.228755
 30
0.0
 11
0.0950846
 21
17.6912
 31
0.0
  0
LINE
  8
0
 62
     0
 10
0.0950846
 20
17.6912
 30
0.0
 11
4.34495
 21
17.6912
 31
0.0
  0
LINE
  8
0
 62
     0
 10
4.34495
 20
17.6912
 30
0.0
 11
4.88516
 21
17.7767
 31
0.0
  0
LINE
  8
0
 62
     0
 10
4.88516
 20
17.7767
 30
0.0
 11
5.37298
 21
18.0261
 31
0.0
  0
LINE
  8
0
 62
     0
 10
5.37298
 20
18.0261
 30
0.0
 11
5.75881
 21
18.412
 31
0.0
  0
LINE
  8
0
 62
     0
 10
5.75881
 20
18.412
 30
0.0
 11
6.00826
 21
18.8998
 31
0.0
  0
LINE
  8
0
 62
     0
 10
6.00826
 20
18.8998
 30
0.0
 11
6.09505
 21
19.44
 31
0.0
  0
LINE
  8
0
 62
     0
 10
6.09505
 20
19.44
 30
0.0
 11
6.00826
 21
19.9829
 31
0.0
  0
LINE
  8
0
 62
     0
 10
6.00826
 20
19.9829
 30
0.0
 11
5.75881
 21
20.4722
 31
0.0
  0
LINE
  8
0
 62
     0
 10
5.75881
 20
20.4722
 30
0.0
 11
5.37298
 21
20.8566
 31
0.0
  0
LINE
  8
0
 62
     0
 10
5.37298
 20
20.8566
 30
0.0
 11
4.88516
 21
21.106
 31
0.0
  0
LINE
  8
0
 62
     0
 10
4.88516
 20
21.106
 30
0.0
 11
4.34495
 21
21.1915
 31
0.0
  0
LINE
  8
0
 62
     0
 10
4.34495
 20
21.1915
 30
0.0
 11
0.0950846
 21
21.1915
 31
0.0
  0
LINE
  8
0
 62
     0
 10
0.0950846
 20
21.1915
 30
0.0
 11
0.0950846
 21
57.0547
 31
0.0
  0
LINE
  8
0
 62
     0
 10
0.0950846
 20
57.0547
 30
0.0
 11
56.8688
 21
57.0547
 31
0.0
  0
LINE
  8
0
 62
     0
 10
56.8688
 20
57.0547
 30
0.0
 11
56.8688
 21
21.1915
 31
0.0
  0
LINE
  8
0
 62
     0
 10
2.43086
 20
16.5916
 30
0.0
 11
16.4331
 21
16.5916
 31
0.0
  0
LINE
  8
0
 62
     0
 10
16.4331
 20
16.5916
 30
0.0
 11
16.4331
 21
2.59209
 31
0.0
  0
LINE
  8
0
 62
     0
 10
16.4331
 20
2.59209
 30
0.0
 11
2.43086
 21
2.59209
 31
0.0
  0
LINE
  8
0
 62
     0
 10
2.43086
 20
2.59209
 30
0.0
 11
2.43086
 21
16.5916
 31
0.0
  0
LINE
  8
0
 62
     0
 10
21.4809
 20
16.5916
 30
0.0
 11
35.4817
 21
16.5916
 31
0.0
  0
LINE
  8
0
 62
     0
 10
35.4817
 20
16.5916
 30
0.0
 11
35.4817
 21
2.59209
 31
0.0
  0
LINE
  8
0
 62
     0
 10
35.4817
 20
2.59209
 30
0.0
 11
21.4809
 21
2.59209
 31
0.0
  0
LINE
  8
0
 62
     0
 10
21.4809
 20
2.59209
 30
0.0
 11
21.4809
 21
16.5916
 31
0.0
  0
LINE
  8
0
 62
     0
 10
40.531
 20
16.5916
 30
0.0
 11
54.5317
 21
16.5916
 31
0.0
  0
LINE
  8
0
 62
     0
 10
54.5317
 20
16.5916
 30
0.0
 11
54.5317
 21
2.59209
 31
0.0
  0
LINE
  8
0
 62
     0
 10
54.5317
 20
2.59209
 30
0.0
 11
40.531
 21
2.59209
 31
0.0
  0
LINE
  8
0
 62
     0
 10
40.531
 20
2.59209
 30
0.0
 11
40.531
 21
16.5916
 31
0.0
  0
LINE
  8
0
 62
     0
 10
2.43086
 20
35.6429
 30
0.0
 11
16.4331
 21
35.6429
 31
0.0
  0
LINE
  8
0
 62
     0
 10
16.4331
 20
35.6429
 30
0.0
 11
16.4331
 21
21.6421
 31
0.0
  0
LINE
  8
0
 62
     0
 10
16.4331
 20
21.6421
 30
0.0
 11
2.43086
 21
21.6421
 31
0.0
  0
LINE
  8
0
 62
     0
 10
2.43086
 20
21.6421
 30
0.0
 11
2.43086
 21
35.6429
 31
0.0
  0
LINE
  8
0
 62
     0
 10
21.4809
 20
35.6429
 30
0.0
 11
35.4817
 21
35.6429
 31
0.0
  0
LINE
  8
0
 62
     0
 10
35.4817
 20
35.6429
 30
0.0
 11
35.4817
 21
21.6421
 31
0.0
  0
LINE
  8
0
 62
     0
 10
35.4817
 20
21.6421
 30
0.0
 11
21.4809
 21
21.6421
 31
0.0
  0
LINE
  8
0
 62
     0
 10
21.4809
 20
21.6421
 30
0.0
 11
21.4809
 21
35.6429
 31
0.0
  0
LINE
  8
0
 62
     0
 10
40.531
 20
35.6429
 30
0.0
 11
54.5317
 21
35.6429
 31
0.0
  0
LINE
  8
0
 62
     0
 10
54.5317
 20
35.6429
 30
0.0
 11
54.5317
 21
21.6421
 31
0.0
  0
LINE
  8
0
 62
     0
 10
54.5317
 20
21.6421
 30
0.0
 11
40.531
 21
21.6421
 31
0.0
  0
LINE
  8
0
 62
     0
 10
40.531
 20
21.6421
 30
0.0
 11
40.531
 21
35.6429
 31
0.0
  0
LINE
  8
0
 62
     0
 10
2.43086
 20
54.6929
 30
0.0
 11
16.4331
 21
54.6929
 31
0.0
  0
LINE
  8
0
 62
     0
 10
16.4331
 20
54.6929
 30
0.0
 11
16.4331
 21
40.6922
 31
0.0
  0
LINE
  8
0
 62
     0
 10
16.4331
 20
40.6922
 30
0.0
 11
2.43086
 21
40.6922
 31
0.0
  0
LINE
  8
0
 62
     0
 10
2.43086
 20
40.6922
 30
0.0
 11
2.43086
 21
54.6929
 31
0.0
  0
LINE
  8
0
 62
     0
 10
21.4809
 20
54.6929
 30
0.0
 11
35.4817
 21
54.6929
 31
0.0
  0
LINE
  8
0
 62
     0
 10
35.4817
 20
54.6929
 30
0.0
 11
35.4817
 21
40.6922
 31
0.0
  0
LINE
  8
0
 62
     0
 10
35.4817
 20
40.6922
 30
0.0
 11
21.4809
 21
40.6922
 31
0.0
  0
LINE
  8
0
 62
     0
 10
21.4809
 20
40.6922
 30
0.0
 11
21.4809
 21
54.6929
 31
0.0
  0
LINE
  8
0
 62
     0
 10
40.531
 20
54.6929
 30
0.0
 11
54.5317
 21
54.6929
 31
0.0
  0
LINE
  8
0
 62
     0
 10
54.5317
 20
54.6929
 30
0.0
 11
54.5317
 21
40.6922
 31
0.0
  0
LINE
  8
0
 62
     0
 10
54.5317
 20
40.6922
 30
0.0
 11
40.531
 21
40.6922
 31
0.0
  0
LINE
  8
0
 62
     0
 10
40.531
 20
40.6922
 30
0.0
 11
40.531
 21
54.6929
 31
0.0
  0
ENDSEC
  0
EOF
