%TF.GenerationSoftware,KiCad,Pcbnew,(6.0.8)*%
%TF.CreationDate,2022-10-08T14:38:13-07:00*%
%TF.ProjectId,9k-Keypad,396b2d4b-6579-4706-9164-2e6b69636164,rev?*%
%TF.SameCoordinates,Original*%
%TF.FileFunction,Copper,L1,Top*%
%TF.FilePolarity,Positive*%
%FSLAX46Y46*%
G04 Gerber Fmt 4.6, Leading zero omitted, Abs format (unit mm)*
G04 Created by KiCad (PCBNEW (6.0.8)) date 2022-10-08 14:38:13*
%MOMM*%
%LPD*%
G01*
G04 APERTURE LIST*
G04 Aperture macros list*
%AMRoundRect*
0 Rectangle with rounded corners*
0 $1 Rounding radius*
0 $2 $3 $4 $5 $6 $7 $8 $9 X,Y pos of 4 corners*
0 Add a 4 corners polygon primitive as box body*
4,1,4,$2,$3,$4,$5,$6,$7,$8,$9,$2,$3,0*
0 Add four circle primitives for the rounded corners*
1,1,$1+$1,$2,$3*
1,1,$1+$1,$4,$5*
1,1,$1+$1,$6,$7*
1,1,$1+$1,$8,$9*
0 Add four rect primitives between the rounded corners*
20,1,$1+$1,$2,$3,$4,$5,0*
20,1,$1+$1,$4,$5,$6,$7,0*
20,1,$1+$1,$6,$7,$8,$9,0*
20,1,$1+$1,$8,$9,$2,$3,0*%
G04 Aperture macros list end*
%TA.AperFunction,ComponentPad*%
%ADD10C,2.250000*%
%TD*%
%TA.AperFunction,SMDPad,CuDef*%
%ADD11RoundRect,0.250000X-0.262500X-0.450000X0.262500X-0.450000X0.262500X0.450000X-0.262500X0.450000X0*%
%TD*%
%TA.AperFunction,SMDPad,CuDef*%
%ADD12RoundRect,0.250000X-0.450000X0.262500X-0.450000X-0.262500X0.450000X-0.262500X0.450000X0.262500X0*%
%TD*%
%TA.AperFunction,SMDPad,CuDef*%
%ADD13R,1.200000X0.900000*%
%TD*%
%TA.AperFunction,SMDPad,CuDef*%
%ADD14RoundRect,0.250000X-0.475000X0.250000X-0.475000X-0.250000X0.475000X-0.250000X0.475000X0.250000X0*%
%TD*%
%TA.AperFunction,SMDPad,CuDef*%
%ADD15RoundRect,0.250000X0.450000X-0.262500X0.450000X0.262500X-0.450000X0.262500X-0.450000X-0.262500X0*%
%TD*%
%TA.AperFunction,SMDPad,CuDef*%
%ADD16R,0.600000X1.450000*%
%TD*%
%TA.AperFunction,SMDPad,CuDef*%
%ADD17R,0.300000X1.450000*%
%TD*%
%TA.AperFunction,ComponentPad*%
%ADD18O,1.000000X2.100000*%
%TD*%
%TA.AperFunction,ComponentPad*%
%ADD19O,1.000000X1.600000*%
%TD*%
%TA.AperFunction,SMDPad,CuDef*%
%ADD20RoundRect,0.250000X0.475000X-0.250000X0.475000X0.250000X-0.475000X0.250000X-0.475000X-0.250000X0*%
%TD*%
%TA.AperFunction,SMDPad,CuDef*%
%ADD21RoundRect,0.250000X-0.250000X-0.475000X0.250000X-0.475000X0.250000X0.475000X-0.250000X0.475000X0*%
%TD*%
%TA.AperFunction,SMDPad,CuDef*%
%ADD22RoundRect,0.243750X0.456250X-0.243750X0.456250X0.243750X-0.456250X0.243750X-0.456250X-0.243750X0*%
%TD*%
%TA.AperFunction,SMDPad,CuDef*%
%ADD23R,1.800000X1.100000*%
%TD*%
%TA.AperFunction,SMDPad,CuDef*%
%ADD24R,0.550000X1.500000*%
%TD*%
%TA.AperFunction,SMDPad,CuDef*%
%ADD25R,1.500000X0.550000*%
%TD*%
%TA.AperFunction,SMDPad,CuDef*%
%ADD26R,1.400000X1.200000*%
%TD*%
%TA.AperFunction,SMDPad,CuDef*%
%ADD27RoundRect,0.250000X0.250000X0.475000X-0.250000X0.475000X-0.250000X-0.475000X0.250000X-0.475000X0*%
%TD*%
%TA.AperFunction,ViaPad*%
%ADD28C,0.800000*%
%TD*%
%TA.AperFunction,Conductor*%
%ADD29C,0.254000*%
%TD*%
%TA.AperFunction,Conductor*%
%ADD30C,0.381000*%
%TD*%
%TA.AperFunction,Conductor*%
%ADD31C,0.200000*%
%TD*%
G04 APERTURE END LIST*
D10*
%TO.P,MX5,1,COL*%
%TO.N,COL1*%
X110915080Y-95516330D03*
%TO.P,MX5,2,ROW*%
%TO.N,Net-(D5-Pad2)*%
X117265080Y-92976330D03*
%TD*%
D11*
%TO.P,R4,1*%
%TO.N,GND*%
X104656250Y-128587500D03*
%TO.P,R4,2*%
%TO.N,Net-(R4-Pad2)*%
X106481250Y-128587500D03*
%TD*%
D10*
%TO.P,MX8,1,COL*%
%TO.N,COL1*%
X110915080Y-114566330D03*
%TO.P,MX8,2,ROW*%
%TO.N,Net-(D8-Pad2)*%
X117265080Y-112026330D03*
%TD*%
D12*
%TO.P,R3,1*%
%TO.N,Net-(R3-Pad1)*%
X111125000Y-143387178D03*
%TO.P,R3,2*%
%TO.N,D-*%
X111125000Y-145212178D03*
%TD*%
D13*
%TO.P,D2,1,K*%
%TO.N,ROW0*%
X124250080Y-80656330D03*
%TO.P,D2,2,A*%
%TO.N,Net-(D2-Pad2)*%
X124250080Y-77356330D03*
%TD*%
D10*
%TO.P,MX7,1,COL*%
%TO.N,COL0*%
X91865080Y-114566330D03*
%TO.P,MX7,2,ROW*%
%TO.N,Net-(D7-Pad2)*%
X98215080Y-112026330D03*
%TD*%
D14*
%TO.P,C1,1*%
%TO.N,Net-(C1-Pad1)*%
X129540000Y-131758428D03*
%TO.P,C1,2*%
%TO.N,GND*%
X129540000Y-133658428D03*
%TD*%
D13*
%TO.P,D7,1,K*%
%TO.N,ROW2*%
X105200080Y-118756330D03*
%TO.P,D7,2,A*%
%TO.N,Net-(D7-Pad2)*%
X105200080Y-115456330D03*
%TD*%
%TO.P,D8,1,K*%
%TO.N,ROW2*%
X124250080Y-118756330D03*
%TO.P,D8,2,A*%
%TO.N,Net-(D8-Pad2)*%
X124250080Y-115456330D03*
%TD*%
D15*
%TO.P,R5,1*%
%TO.N,Net-(J1-PadA5)*%
X108743750Y-145212178D03*
%TO.P,R5,2*%
%TO.N,GND*%
X108743750Y-143387178D03*
%TD*%
D11*
%TO.P,R6,1*%
%TO.N,Net-(J1-PadB5)*%
X116562500Y-146640000D03*
%TO.P,R6,2*%
%TO.N,GND*%
X118387500Y-146640000D03*
%TD*%
D10*
%TO.P,MX9,1,COL*%
%TO.N,COL2*%
X129965080Y-114566330D03*
%TO.P,MX9,2,ROW*%
%TO.N,Net-(D9-Pad2)*%
X136315080Y-112026330D03*
%TD*%
%TO.P,MX3,1,COL*%
%TO.N,COL2*%
X129965080Y-76466330D03*
%TO.P,MX3,2,ROW*%
%TO.N,Net-(D3-Pad2)*%
X136315080Y-73926330D03*
%TD*%
D16*
%TO.P,J1,A1,GND*%
%TO.N,GND*%
X111050000Y-148945000D03*
%TO.P,J1,A4,VBUS*%
%TO.N,VCC*%
X111850000Y-148945000D03*
D17*
%TO.P,J1,A5,CC1*%
%TO.N,Net-(J1-PadA5)*%
X113050000Y-148945000D03*
%TO.P,J1,A6,D+*%
%TO.N,D+*%
X114050000Y-148945000D03*
%TO.P,J1,A7,D-*%
%TO.N,D-*%
X114550000Y-148945000D03*
%TO.P,J1,A8,SBU1*%
%TO.N,unconnected-(J1-PadA8)*%
X115550000Y-148945000D03*
D16*
%TO.P,J1,A9,VBUS*%
%TO.N,VCC*%
X116750000Y-148945000D03*
%TO.P,J1,A12,GND*%
%TO.N,GND*%
X117550000Y-148945000D03*
%TO.P,J1,B1,GND*%
X117550000Y-148945000D03*
%TO.P,J1,B4,VBUS*%
%TO.N,VCC*%
X116750000Y-148945000D03*
D17*
%TO.P,J1,B5,CC2*%
%TO.N,Net-(J1-PadB5)*%
X116050000Y-148945000D03*
%TO.P,J1,B6,D+*%
%TO.N,D+*%
X115050000Y-148945000D03*
%TO.P,J1,B7,D-*%
%TO.N,D-*%
X113550000Y-148945000D03*
%TO.P,J1,B8,SBU2*%
%TO.N,unconnected-(J1-PadB8)*%
X112550000Y-148945000D03*
D16*
%TO.P,J1,B9,VBUS*%
%TO.N,VCC*%
X111850000Y-148945000D03*
%TO.P,J1,B12,GND*%
%TO.N,GND*%
X111050000Y-148945000D03*
D18*
%TO.P,J1,S1,SHIELD*%
X118620000Y-149860000D03*
D19*
X109980000Y-154040000D03*
X118620000Y-154040000D03*
D18*
X109980000Y-149860000D03*
%TD*%
D20*
%TO.P,C2,1*%
%TO.N,Net-(C2-Pad1)*%
X123190000Y-133658428D03*
%TO.P,C2,2*%
%TO.N,GND*%
X123190000Y-131758428D03*
%TD*%
D10*
%TO.P,MX6,1,COL*%
%TO.N,COL2*%
X129965080Y-95516330D03*
%TO.P,MX6,2,ROW*%
%TO.N,Net-(D6-Pad2)*%
X136315080Y-92976330D03*
%TD*%
D14*
%TO.P,C7,1*%
%TO.N,+5V*%
X102393750Y-130018750D03*
%TO.P,C7,2*%
%TO.N,GND*%
X102393750Y-131918750D03*
%TD*%
D15*
%TO.P,R1,1*%
%TO.N,+5V*%
X123825000Y-141243428D03*
%TO.P,R1,2*%
%TO.N,Net-(R1-Pad2)*%
X123825000Y-139418428D03*
%TD*%
D21*
%TO.P,C3,1*%
%TO.N,Net-(C3-Pad1)*%
X118112500Y-143505928D03*
%TO.P,C3,2*%
%TO.N,GND*%
X120012500Y-143505928D03*
%TD*%
D13*
%TO.P,D5,1,K*%
%TO.N,ROW1*%
X124250080Y-99706330D03*
%TO.P,D5,2,A*%
%TO.N,Net-(D5-Pad2)*%
X124250080Y-96406330D03*
%TD*%
D20*
%TO.P,C4,1*%
%TO.N,+5V*%
X131762500Y-135887500D03*
%TO.P,C4,2*%
%TO.N,GND*%
X131762500Y-133987500D03*
%TD*%
D22*
%TO.P,F1,1*%
%TO.N,VCC*%
X106362500Y-145237178D03*
%TO.P,F1,2*%
%TO.N,+5V*%
X106362500Y-143362178D03*
%TD*%
D13*
%TO.P,D3,1,K*%
%TO.N,ROW0*%
X143300080Y-80656330D03*
%TO.P,D3,2,A*%
%TO.N,Net-(D3-Pad2)*%
X143300080Y-77356330D03*
%TD*%
D12*
%TO.P,R2,1*%
%TO.N,Net-(R2-Pad1)*%
X113506250Y-143387178D03*
%TO.P,R2,2*%
%TO.N,D+*%
X113506250Y-145212178D03*
%TD*%
D23*
%TO.P,S1,1,1*%
%TO.N,GND*%
X133275000Y-141228428D03*
%TO.P,S1,2,2*%
%TO.N,Net-(R1-Pad2)*%
X127075000Y-137528428D03*
%TO.P,S1,3*%
%TO.N,N/C*%
X133275000Y-137528428D03*
%TO.P,S1,4*%
X127075000Y-141228428D03*
%TD*%
D13*
%TO.P,D9,1,K*%
%TO.N,ROW2*%
X143300080Y-118756330D03*
%TO.P,D9,2,A*%
%TO.N,Net-(D9-Pad2)*%
X143300080Y-115456330D03*
%TD*%
%TO.P,D6,1,K*%
%TO.N,ROW1*%
X143300080Y-99706330D03*
%TO.P,D6,2,A*%
%TO.N,Net-(D6-Pad2)*%
X143300080Y-96406330D03*
%TD*%
%TO.P,D4,1,K*%
%TO.N,ROW1*%
X105200080Y-99706330D03*
%TO.P,D4,2,A*%
%TO.N,Net-(D4-Pad2)*%
X105200080Y-96406330D03*
%TD*%
D10*
%TO.P,MX2,1,COL*%
%TO.N,COL1*%
X110915080Y-76466330D03*
%TO.P,MX2,2,ROW*%
%TO.N,Net-(D2-Pad2)*%
X117265080Y-73926330D03*
%TD*%
%TO.P,MX4,1,COL*%
%TO.N,COL0*%
X91865080Y-95516330D03*
%TO.P,MX4,2,ROW*%
%TO.N,Net-(D4-Pad2)*%
X98215080Y-92976330D03*
%TD*%
D21*
%TO.P,C5,1*%
%TO.N,+5V*%
X122081250Y-128587500D03*
%TO.P,C5,2*%
%TO.N,GND*%
X123981250Y-128587500D03*
%TD*%
D24*
%TO.P,U1,1,PE6*%
%TO.N,unconnected-(U1-Pad1)*%
X110300000Y-140330928D03*
%TO.P,U1,2,UVCC*%
%TO.N,+5V*%
X111100000Y-140330928D03*
%TO.P,U1,3,D-*%
%TO.N,Net-(R3-Pad1)*%
X111900000Y-140330928D03*
%TO.P,U1,4,D+*%
%TO.N,Net-(R2-Pad1)*%
X112700000Y-140330928D03*
%TO.P,U1,5,UGND*%
%TO.N,GND*%
X113500000Y-140330928D03*
%TO.P,U1,6,UCAP*%
%TO.N,Net-(C3-Pad1)*%
X114300000Y-140330928D03*
%TO.P,U1,7,VBUS*%
%TO.N,+5V*%
X115100000Y-140330928D03*
%TO.P,U1,8,PB0*%
%TO.N,unconnected-(U1-Pad8)*%
X115900000Y-140330928D03*
%TO.P,U1,9,PB1*%
%TO.N,unconnected-(U1-Pad9)*%
X116700000Y-140330928D03*
%TO.P,U1,10,PB2*%
%TO.N,unconnected-(U1-Pad10)*%
X117500000Y-140330928D03*
%TO.P,U1,11,PB3*%
%TO.N,unconnected-(U1-Pad11)*%
X118300000Y-140330928D03*
D25*
%TO.P,U1,12,PB7*%
%TO.N,unconnected-(U1-Pad12)*%
X120000000Y-138630928D03*
%TO.P,U1,13,~{RESET}*%
%TO.N,Net-(R1-Pad2)*%
X120000000Y-137830928D03*
%TO.P,U1,14,VCC*%
%TO.N,+5V*%
X120000000Y-137030928D03*
%TO.P,U1,15,GND*%
%TO.N,GND*%
X120000000Y-136230928D03*
%TO.P,U1,16,XTAL2*%
%TO.N,Net-(C2-Pad1)*%
X120000000Y-135430928D03*
%TO.P,U1,17,XTAL1*%
%TO.N,Net-(C1-Pad1)*%
X120000000Y-134630928D03*
%TO.P,U1,18,PD0*%
%TO.N,unconnected-(U1-Pad18)*%
X120000000Y-133830928D03*
%TO.P,U1,19,PD1*%
%TO.N,unconnected-(U1-Pad19)*%
X120000000Y-133030928D03*
%TO.P,U1,20,PD2*%
%TO.N,unconnected-(U1-Pad20)*%
X120000000Y-132230928D03*
%TO.P,U1,21,PD3*%
%TO.N,unconnected-(U1-Pad21)*%
X120000000Y-131430928D03*
%TO.P,U1,22,PD5*%
%TO.N,unconnected-(U1-Pad22)*%
X120000000Y-130630928D03*
D24*
%TO.P,U1,23,GND*%
%TO.N,GND*%
X118300000Y-128930928D03*
%TO.P,U1,24,AVCC*%
%TO.N,+5V*%
X117500000Y-128930928D03*
%TO.P,U1,25,PD4*%
%TO.N,unconnected-(U1-Pad25)*%
X116700000Y-128930928D03*
%TO.P,U1,26,PD6*%
%TO.N,unconnected-(U1-Pad26)*%
X115900000Y-128930928D03*
%TO.P,U1,27,PD7*%
%TO.N,unconnected-(U1-Pad27)*%
X115100000Y-128930928D03*
%TO.P,U1,28,PB4*%
%TO.N,unconnected-(U1-Pad28)*%
X114300000Y-128930928D03*
%TO.P,U1,29,PB5*%
%TO.N,unconnected-(U1-Pad29)*%
X113500000Y-128930928D03*
%TO.P,U1,30,PB6*%
%TO.N,ROW2*%
X112700000Y-128930928D03*
%TO.P,U1,31,PC6*%
%TO.N,ROW1*%
X111900000Y-128930928D03*
%TO.P,U1,32,PC7*%
%TO.N,ROW0*%
X111100000Y-128930928D03*
%TO.P,U1,33,~{HWB}/PE2*%
%TO.N,Net-(R4-Pad2)*%
X110300000Y-128930928D03*
D25*
%TO.P,U1,34,VCC*%
%TO.N,+5V*%
X108600000Y-130630928D03*
%TO.P,U1,35,GND*%
%TO.N,GND*%
X108600000Y-131430928D03*
%TO.P,U1,36,PF7*%
%TO.N,unconnected-(U1-Pad36)*%
X108600000Y-132230928D03*
%TO.P,U1,37,PF6*%
%TO.N,unconnected-(U1-Pad37)*%
X108600000Y-133030928D03*
%TO.P,U1,38,PF5*%
%TO.N,unconnected-(U1-Pad38)*%
X108600000Y-133830928D03*
%TO.P,U1,39,PF4*%
%TO.N,COL2*%
X108600000Y-134630928D03*
%TO.P,U1,40,PF1*%
%TO.N,COL1*%
X108600000Y-135430928D03*
%TO.P,U1,41,PF0*%
%TO.N,COL0*%
X108600000Y-136230928D03*
%TO.P,U1,42,AREF*%
%TO.N,unconnected-(U1-Pad42)*%
X108600000Y-137030928D03*
%TO.P,U1,43,GND*%
%TO.N,GND*%
X108600000Y-137830928D03*
%TO.P,U1,44,AVCC*%
%TO.N,+5V*%
X108600000Y-138630928D03*
%TD*%
D26*
%TO.P,Y1,1,1*%
%TO.N,Net-(C1-Pad1)*%
X127465000Y-131858428D03*
%TO.P,Y1,2,2*%
%TO.N,GND*%
X125265000Y-131858428D03*
%TO.P,Y1,3,3*%
%TO.N,Net-(C2-Pad1)*%
X125265000Y-133558428D03*
%TO.P,Y1,4,4*%
%TO.N,GND*%
X127465000Y-133558428D03*
%TD*%
D27*
%TO.P,C6,1*%
%TO.N,+5V*%
X106518750Y-138743428D03*
%TO.P,C6,2*%
%TO.N,GND*%
X104618750Y-138743428D03*
%TD*%
D13*
%TO.P,D1,1,K*%
%TO.N,ROW0*%
X105200080Y-80656330D03*
%TO.P,D1,2,A*%
%TO.N,Net-(D1-Pad2)*%
X105200080Y-77356330D03*
%TD*%
D10*
%TO.P,MX1,1,COL*%
%TO.N,COL0*%
X91865080Y-76466330D03*
%TO.P,MX1,2,ROW*%
%TO.N,Net-(D1-Pad2)*%
X98215080Y-73926330D03*
%TD*%
D28*
%TO.N,GND*%
X105106572Y-131430928D03*
X134937500Y-141287500D03*
X128424214Y-134774214D03*
X102393750Y-128587500D03*
X103981250Y-137318750D03*
%TO.N,+5V*%
X134937500Y-135731250D03*
X121606572Y-141918428D03*
X104775000Y-140493750D03*
%TO.N,COL0*%
X104140000Y-135890000D03*
%TO.N,COL1*%
X104140000Y-134620000D03*
%TO.N,COL2*%
X104140000Y-133350000D03*
%TD*%
D29*
%TO.N,Net-(C1-Pad1)*%
X122138000Y-133496928D02*
X122138000Y-131269427D01*
X121004000Y-134630928D02*
X122138000Y-133496928D01*
X120000000Y-134630928D02*
X121004000Y-134630928D01*
X126538000Y-130931428D02*
X127465000Y-131858428D01*
X122138000Y-131269427D02*
X122475999Y-130931428D01*
X127465000Y-131858428D02*
X129440000Y-131858428D01*
X122475999Y-130931428D02*
X126538000Y-130931428D01*
D30*
%TO.N,GND*%
X110214072Y-148945000D02*
X109537500Y-148268428D01*
X111050000Y-148945000D02*
X110214072Y-148945000D01*
X109537500Y-148268428D02*
X109980000Y-148710928D01*
X104775000Y-145227713D02*
X104775000Y-145887178D01*
X105568750Y-146680928D02*
X107950000Y-146680928D01*
X105106572Y-131430928D02*
X102881572Y-131430928D01*
X131762500Y-133987500D02*
X131762500Y-130968750D01*
X104656250Y-128587500D02*
X102393750Y-128587500D01*
X119852964Y-143665464D02*
X118897000Y-144621428D01*
X102881572Y-131430928D02*
X102393750Y-131918750D01*
X108600000Y-131430928D02*
X105106572Y-131430928D01*
X107950000Y-146680928D02*
X109537500Y-148268428D01*
X126206250Y-130175000D02*
X130968750Y-130175000D01*
X118300000Y-128930928D02*
X120199678Y-128930928D01*
X104775000Y-145887178D02*
X105568750Y-146680928D01*
X131433428Y-133658428D02*
X131762500Y-133987500D01*
X129540000Y-133658428D02*
X127565000Y-133658428D01*
X113500000Y-141336928D02*
X113500000Y-140330928D01*
X131762500Y-130968750D02*
X130968750Y-130175000D01*
X125515000Y-131858428D02*
X127215000Y-133558428D01*
X118897000Y-144621428D02*
X116784500Y-144621428D01*
X120199678Y-128930928D02*
X121443750Y-130175000D01*
X105734250Y-137627928D02*
X104618750Y-138743428D01*
X125265000Y-131858428D02*
X123290000Y-131858428D01*
X116784500Y-144621428D02*
X113500000Y-141336928D01*
X123981250Y-128587500D02*
X122393750Y-130175000D01*
X104618750Y-138743428D02*
X103981250Y-138105928D01*
X133275000Y-141228428D02*
X134878428Y-141228428D01*
X120000000Y-136230928D02*
X121737822Y-136230928D01*
X123194536Y-134774214D02*
X128424214Y-134774214D01*
X118620000Y-154040000D02*
X118620000Y-149860000D01*
X108600000Y-137830928D02*
X107237054Y-137830928D01*
X129540000Y-133658428D02*
X131433428Y-133658428D01*
X124618750Y-128587500D02*
X126206250Y-130175000D01*
X108743750Y-143387178D02*
X107771750Y-144359178D01*
X118387500Y-145130928D02*
X119852964Y-143665464D01*
X118620000Y-149860000D02*
X118620000Y-146872500D01*
X117550000Y-147477500D02*
X118387500Y-146640000D01*
X109980000Y-154040000D02*
X109980000Y-149860000D01*
X121737822Y-136230928D02*
X123194536Y-134774214D01*
X107771750Y-144359178D02*
X105643535Y-144359178D01*
X117550000Y-148945000D02*
X117550000Y-147477500D01*
X122393750Y-130175000D02*
X121443750Y-130175000D01*
X123981250Y-128587500D02*
X124618750Y-128587500D01*
X107034054Y-137627928D02*
X105734250Y-137627928D01*
X134878428Y-141228428D02*
X134937500Y-141287500D01*
X105643535Y-144359178D02*
X104775000Y-145227713D01*
X103981250Y-138105928D02*
X103981250Y-137318750D01*
X129210928Y-133987500D02*
X128424214Y-134774214D01*
X107237054Y-137830928D02*
X107034054Y-137627928D01*
X109980000Y-148710928D02*
X109980000Y-149860000D01*
X118387500Y-146640000D02*
X118387500Y-145130928D01*
D29*
%TO.N,Net-(C2-Pad1)*%
X121417500Y-135430928D02*
X123190000Y-133658428D01*
X120000000Y-135430928D02*
X121417500Y-135430928D01*
X123190000Y-133658428D02*
X125165000Y-133658428D01*
%TO.N,Net-(C3-Pad1)*%
X116681250Y-143505928D02*
X118112500Y-143505928D01*
X114300000Y-141124678D02*
X116681250Y-143505928D01*
X114300000Y-140330928D02*
X114300000Y-141124678D01*
D30*
%TO.N,+5V*%
X111100000Y-140330928D02*
X111100000Y-141461928D01*
X107156250Y-141918428D02*
X106362500Y-142712178D01*
X124496554Y-127472000D02*
X126220204Y-129195650D01*
X101596714Y-140490464D02*
X104771714Y-140490464D01*
X102393750Y-130018750D02*
X103005928Y-130630928D01*
X115100000Y-141130928D02*
X115100000Y-140330928D01*
X106518750Y-138743428D02*
X104771714Y-140490464D01*
X121759480Y-137030928D02*
X122902908Y-135887500D01*
X121284178Y-127790428D02*
X122081250Y-128587500D01*
X106362500Y-142712178D02*
X106362500Y-143362178D01*
X115100000Y-141130928D02*
X115887500Y-141918428D01*
X104771714Y-140490464D02*
X104768428Y-140493750D01*
X120000000Y-137030928D02*
X121759480Y-137030928D01*
X126220204Y-129195650D02*
X133958150Y-129195650D01*
X104775000Y-140493750D02*
X106362500Y-142081250D01*
X133958150Y-129195650D02*
X134937500Y-130175000D01*
X121606572Y-141918428D02*
X123150000Y-141918428D01*
X111100000Y-141461928D02*
X110643500Y-141918428D01*
X115887500Y-141918428D02*
X121606572Y-141918428D01*
X123150000Y-141918428D02*
X123825000Y-141243428D01*
X117500000Y-127924928D02*
X117634500Y-127790428D01*
X110643500Y-141918428D02*
X107156250Y-141918428D01*
X100806250Y-139700000D02*
X101596714Y-140490464D01*
X103005928Y-130630928D02*
X108600000Y-130630928D01*
X106362500Y-142081250D02*
X106362500Y-142712178D01*
X104768428Y-140493750D02*
X104775000Y-140493750D01*
X122081250Y-128587500D02*
X123196750Y-127472000D01*
X131762500Y-135887500D02*
X134781250Y-135887500D01*
X102393750Y-130018750D02*
X100806250Y-131606250D01*
X134781250Y-135887500D02*
X134937500Y-135731250D01*
X100806250Y-131606250D02*
X100806250Y-139700000D01*
X122902908Y-135887500D02*
X131762500Y-135887500D01*
X123196750Y-127472000D02*
X124496554Y-127472000D01*
X108600000Y-138630928D02*
X106631250Y-138630928D01*
X134937500Y-130175000D02*
X134937500Y-135731250D01*
X117634500Y-127790428D02*
X121284178Y-127790428D01*
X117500000Y-128930928D02*
X117500000Y-127924928D01*
D29*
%TO.N,ROW0*%
X105200080Y-80656330D02*
X105920981Y-81377231D01*
X124250080Y-80656330D02*
X124970981Y-81377231D01*
X82550000Y-82550000D02*
X83722769Y-81377231D01*
X111100000Y-128930928D02*
X111100000Y-127926928D01*
X83722769Y-81377231D02*
X104479179Y-81377231D01*
X104479179Y-81377231D02*
X105200080Y-80656330D01*
X124970981Y-81377231D02*
X142579179Y-81377231D01*
X83820000Y-127000000D02*
X82550000Y-125730000D01*
X111100000Y-127926928D02*
X110173072Y-127000000D01*
X105920981Y-81377231D02*
X123529179Y-81377231D01*
X142579179Y-81377231D02*
X143300080Y-80656330D01*
X110173072Y-127000000D02*
X83820000Y-127000000D01*
X123529179Y-81377231D02*
X124250080Y-80656330D01*
X82550000Y-125730000D02*
X82550000Y-82550000D01*
%TO.N,Net-(D1-Pad2)*%
X98215080Y-73926330D02*
X101770080Y-73926330D01*
X101770080Y-73926330D02*
X105200080Y-77356330D01*
%TO.N,Net-(D2-Pad2)*%
X117265080Y-73926330D02*
X120820080Y-73926330D01*
X120820080Y-73926330D02*
X124250080Y-77356330D01*
%TO.N,Net-(D3-Pad2)*%
X139870080Y-73926330D02*
X143300080Y-77356330D01*
X136315080Y-73926330D02*
X139870080Y-73926330D01*
%TO.N,ROW1*%
X104479179Y-100427231D02*
X105200080Y-99706330D01*
X124970981Y-100427231D02*
X142579179Y-100427231D01*
X110490000Y-125730000D02*
X85090000Y-125730000D01*
X84992769Y-100427231D02*
X104479179Y-100427231D01*
X105920981Y-100427231D02*
X123529179Y-100427231D01*
X111900000Y-128930928D02*
X111900000Y-127140000D01*
X105200080Y-99706330D02*
X105920981Y-100427231D01*
X111900000Y-127140000D02*
X110490000Y-125730000D01*
X83820000Y-101600000D02*
X84992769Y-100427231D01*
X83820000Y-124460000D02*
X83820000Y-101600000D01*
X85090000Y-125730000D02*
X83820000Y-124460000D01*
X142579179Y-100427231D02*
X143300080Y-99706330D01*
X123529179Y-100427231D02*
X124250080Y-99706330D01*
X124250080Y-99706330D02*
X124970981Y-100427231D01*
%TO.N,Net-(D4-Pad2)*%
X101770080Y-92976330D02*
X105200080Y-96406330D01*
X98215080Y-92976330D02*
X101770080Y-92976330D01*
%TO.N,Net-(D5-Pad2)*%
X117265080Y-92976330D02*
X120820080Y-92976330D01*
X120820080Y-92976330D02*
X124250080Y-96406330D01*
%TO.N,Net-(D6-Pad2)*%
X136315080Y-92976330D02*
X139870080Y-92976330D01*
X139870080Y-92976330D02*
X143300080Y-96406330D01*
%TO.N,ROW2*%
X123529179Y-119477231D02*
X124250080Y-118756330D01*
X104479179Y-119477231D02*
X105200080Y-118756330D01*
X124250080Y-118756330D02*
X124970981Y-119477231D01*
X112700000Y-128930928D02*
X112700000Y-126670000D01*
X124970981Y-119477231D02*
X142579179Y-119477231D01*
X105920981Y-119477231D02*
X123529179Y-119477231D01*
X112700000Y-126670000D02*
X110490000Y-124460000D01*
X110490000Y-124460000D02*
X86360000Y-124460000D01*
X86360000Y-124460000D02*
X85090000Y-123190000D01*
X86262769Y-119477231D02*
X104479179Y-119477231D01*
X85090000Y-120650000D02*
X86262769Y-119477231D01*
X85090000Y-123190000D02*
X85090000Y-120650000D01*
X142579179Y-119477231D02*
X143300080Y-118756330D01*
X105200080Y-118756330D02*
X105920981Y-119477231D01*
%TO.N,Net-(D7-Pad2)*%
X98215080Y-112026330D02*
X101770080Y-112026330D01*
X101770080Y-112026330D02*
X105200080Y-115456330D01*
%TO.N,Net-(D8-Pad2)*%
X120820080Y-112026330D02*
X124250080Y-115456330D01*
X117265080Y-112026330D02*
X120820080Y-112026330D01*
%TO.N,Net-(D9-Pad2)*%
X136315080Y-112026330D02*
X139870080Y-112026330D01*
X139870080Y-112026330D02*
X143300080Y-115456330D01*
%TO.N,VCC*%
X106362500Y-145237178D02*
X107177000Y-146051678D01*
X108052606Y-146051678D02*
X109270464Y-147269536D01*
X116750000Y-149774000D02*
X116750000Y-148945000D01*
X107177000Y-146051678D02*
X108052606Y-146051678D01*
X112473000Y-150397000D02*
X116127000Y-150397000D01*
X116127000Y-150397000D02*
X116750000Y-149774000D01*
X111850000Y-148945000D02*
X111850000Y-149774000D01*
X111850000Y-148945000D02*
X111850000Y-147966000D01*
X111850000Y-147966000D02*
X111153536Y-147269536D01*
X111850000Y-149774000D02*
X112473000Y-150397000D01*
X111153536Y-147269536D02*
X109270464Y-147269536D01*
%TO.N,COL0*%
X106680000Y-135890000D02*
X104140000Y-135890000D01*
X107020928Y-136230928D02*
X106680000Y-135890000D01*
X108600000Y-136230928D02*
X107020928Y-136230928D01*
%TO.N,COL1*%
X108600000Y-135430928D02*
X107490928Y-135430928D01*
X106680000Y-134620000D02*
X104140000Y-134620000D01*
X107490928Y-135430928D02*
X106680000Y-134620000D01*
%TO.N,COL2*%
X107596000Y-134630928D02*
X106315072Y-133350000D01*
X106315072Y-133350000D02*
X104140000Y-133350000D01*
X108600000Y-134630928D02*
X107596000Y-134630928D01*
%TO.N,Net-(R1-Pad2)*%
X123825000Y-137949678D02*
X123943750Y-137830928D01*
X123943750Y-137830928D02*
X126772500Y-137830928D01*
X120000000Y-137830928D02*
X123943750Y-137830928D01*
X123825000Y-139418428D02*
X123825000Y-137949678D01*
%TO.N,Net-(R2-Pad1)*%
X112700000Y-142699678D02*
X112700000Y-140330928D01*
X113387500Y-143387178D02*
X112700000Y-142699678D01*
D31*
%TO.N,D+*%
X113506250Y-146777822D02*
X114648428Y-147920000D01*
X115050000Y-147970000D02*
X115000000Y-147920000D01*
X115000000Y-147920000D02*
X114648428Y-147920000D01*
X114648428Y-147920000D02*
X114100000Y-147920000D01*
X115050000Y-148945000D02*
X115050000Y-147970000D01*
X113506250Y-145212178D02*
X113506250Y-146777822D01*
X114100000Y-147920000D02*
X114050000Y-147970000D01*
X114050000Y-147970000D02*
X114050000Y-148945000D01*
D29*
%TO.N,Net-(R3-Pad1)*%
X111900000Y-142730928D02*
X111900000Y-140330928D01*
X111243750Y-143387178D02*
X111900000Y-142730928D01*
D31*
%TO.N,D-*%
X113550000Y-148945000D02*
X113550000Y-149920000D01*
X113550000Y-149920000D02*
X113600000Y-149970000D01*
X114500000Y-149970000D02*
X114550000Y-149920000D01*
X113600000Y-149970000D02*
X114500000Y-149970000D01*
X114550000Y-149920000D02*
X114550000Y-148945000D01*
X113550000Y-147637178D02*
X113550000Y-148945000D01*
X111125000Y-145212178D02*
X113550000Y-147637178D01*
D29*
%TO.N,Net-(R4-Pad2)*%
X106824678Y-128930928D02*
X110300000Y-128930928D01*
%TO.N,Net-(J1-PadB5)*%
X116050000Y-148945000D02*
X116050000Y-147152500D01*
X116050000Y-147152500D02*
X116562500Y-146640000D01*
%TO.N,Net-(J1-PadA5)*%
X108743750Y-145212178D02*
X110347108Y-146815536D01*
X111949536Y-146815536D02*
X110347108Y-146815536D01*
X113050000Y-147916000D02*
X111949536Y-146815536D01*
X113050000Y-148945000D02*
X113050000Y-147916000D01*
%TD*%
M02*
