M48
; DRILL file {KiCad (6.0.8)} date Sat Oct  8 14:38:13 2022
; FORMAT={-:-/ absolute / inch / decimal}
; #@! TF.CreationDate,2022-10-08T14:38:13-07:00
; #@! TF.GenerationSoftware,Kicad,Pcbnew,(6.0.8)
; #@! TF.FileFunction,Plated,1,2,PTH
FMAT,2
INCH
; #@! TA.AperFunction,Plated,PTH,ViaDrill
T1C0.0157
; #@! TA.AperFunction,Plated,PTH,ComponentDrill
T2C0.0236
; #@! TA.AperFunction,Plated,PTH,ComponentDrill
T3C0.0579
%
G90
G05
T1
X4.0312Y-5.0625
X4.0938Y-5.4062
X4.1Y-5.25
X4.1Y-5.3
X4.1Y-5.35
X4.125Y-5.5312
X4.1381Y-5.1744
X4.7877Y-5.5873
X5.0561Y-5.3061
X5.3125Y-5.3438
X5.3125Y-5.5625
T3
X3.6167Y-3.0105
X3.6167Y-3.7605
X3.6167Y-4.5105
X3.8667Y-2.9105
X3.8667Y-3.6605
X3.8667Y-4.4105
X4.3667Y-3.0105
X4.3667Y-3.7605
X4.3667Y-4.5105
X4.6167Y-2.9105
X4.6167Y-3.6605
X4.6167Y-4.4105
X5.1167Y-3.0105
X5.1167Y-3.7605
X5.1167Y-4.5105
X5.3667Y-2.9105
X5.3667Y-3.6605
X5.3667Y-4.4105
T2
G00X4.3299Y-5.8783
M15
G01X4.3299Y-5.9217
M16
G05
G00X4.3299Y-6.0528
M15
G01X4.3299Y-6.0764
M16
G05
G00X4.6701Y-5.8783
M15
G01X4.6701Y-5.9217
M16
G05
G00X4.6701Y-6.0528
M15
G01X4.6701Y-6.0764
M16
G05
T0
M30
