%TF.GenerationSoftware,KiCad,Pcbnew,(6.0.8)*%
%TF.CreationDate,2022-10-08T14:38:13-07:00*%
%TF.ProjectId,9k-Keypad,396b2d4b-6579-4706-9164-2e6b69636164,rev?*%
%TF.SameCoordinates,Original*%
%TF.FileFunction,Paste,Top*%
%TF.FilePolarity,Positive*%
%FSLAX46Y46*%
G04 Gerber Fmt 4.6, Leading zero omitted, Abs format (unit mm)*
G04 Created by KiCad (PCBNEW (6.0.8)) date 2022-10-08 14:38:13*
%MOMM*%
%LPD*%
G01*
G04 APERTURE LIST*
G04 Aperture macros list*
%AMRoundRect*
0 Rectangle with rounded corners*
0 $1 Rounding radius*
0 $2 $3 $4 $5 $6 $7 $8 $9 X,Y pos of 4 corners*
0 Add a 4 corners polygon primitive as box body*
4,1,4,$2,$3,$4,$5,$6,$7,$8,$9,$2,$3,0*
0 Add four circle primitives for the rounded corners*
1,1,$1+$1,$2,$3*
1,1,$1+$1,$4,$5*
1,1,$1+$1,$6,$7*
1,1,$1+$1,$8,$9*
0 Add four rect primitives between the rounded corners*
20,1,$1+$1,$2,$3,$4,$5,0*
20,1,$1+$1,$4,$5,$6,$7,0*
20,1,$1+$1,$6,$7,$8,$9,0*
20,1,$1+$1,$8,$9,$2,$3,0*%
G04 Aperture macros list end*
%ADD10RoundRect,0.250000X-0.262500X-0.450000X0.262500X-0.450000X0.262500X0.450000X-0.262500X0.450000X0*%
%ADD11RoundRect,0.250000X-0.450000X0.262500X-0.450000X-0.262500X0.450000X-0.262500X0.450000X0.262500X0*%
%ADD12R,1.200000X0.900000*%
%ADD13RoundRect,0.250000X-0.475000X0.250000X-0.475000X-0.250000X0.475000X-0.250000X0.475000X0.250000X0*%
%ADD14RoundRect,0.250000X0.450000X-0.262500X0.450000X0.262500X-0.450000X0.262500X-0.450000X-0.262500X0*%
%ADD15R,0.600000X1.450000*%
%ADD16R,0.300000X1.450000*%
%ADD17RoundRect,0.250000X0.475000X-0.250000X0.475000X0.250000X-0.475000X0.250000X-0.475000X-0.250000X0*%
%ADD18RoundRect,0.250000X-0.250000X-0.475000X0.250000X-0.475000X0.250000X0.475000X-0.250000X0.475000X0*%
%ADD19RoundRect,0.243750X0.456250X-0.243750X0.456250X0.243750X-0.456250X0.243750X-0.456250X-0.243750X0*%
%ADD20R,1.800000X1.100000*%
%ADD21R,0.550000X1.500000*%
%ADD22R,1.500000X0.550000*%
%ADD23R,1.400000X1.200000*%
%ADD24RoundRect,0.250000X0.250000X0.475000X-0.250000X0.475000X-0.250000X-0.475000X0.250000X-0.475000X0*%
G04 APERTURE END LIST*
D10*
%TO.C,R4*%
X104656250Y-128587500D03*
X106481250Y-128587500D03*
%TD*%
D11*
%TO.C,R3*%
X111125000Y-143387178D03*
X111125000Y-145212178D03*
%TD*%
D12*
%TO.C,D2*%
X124250080Y-80656330D03*
X124250080Y-77356330D03*
%TD*%
D13*
%TO.C,C1*%
X129540000Y-131758428D03*
X129540000Y-133658428D03*
%TD*%
D12*
%TO.C,D7*%
X105200080Y-118756330D03*
X105200080Y-115456330D03*
%TD*%
%TO.C,D8*%
X124250080Y-118756330D03*
X124250080Y-115456330D03*
%TD*%
D14*
%TO.C,R5*%
X108743750Y-145212178D03*
X108743750Y-143387178D03*
%TD*%
D10*
%TO.C,R6*%
X116562500Y-146640000D03*
X118387500Y-146640000D03*
%TD*%
D15*
%TO.C,J1*%
X111050000Y-148945000D03*
X111850000Y-148945000D03*
D16*
X113050000Y-148945000D03*
X114050000Y-148945000D03*
X114550000Y-148945000D03*
X115550000Y-148945000D03*
D15*
X116750000Y-148945000D03*
X117550000Y-148945000D03*
X117550000Y-148945000D03*
X116750000Y-148945000D03*
D16*
X116050000Y-148945000D03*
X115050000Y-148945000D03*
X113550000Y-148945000D03*
X112550000Y-148945000D03*
D15*
X111850000Y-148945000D03*
X111050000Y-148945000D03*
%TD*%
D17*
%TO.C,C2*%
X123190000Y-133658428D03*
X123190000Y-131758428D03*
%TD*%
D13*
%TO.C,C7*%
X102393750Y-130018750D03*
X102393750Y-131918750D03*
%TD*%
D14*
%TO.C,R1*%
X123825000Y-141243428D03*
X123825000Y-139418428D03*
%TD*%
D18*
%TO.C,C3*%
X118112500Y-143505928D03*
X120012500Y-143505928D03*
%TD*%
D12*
%TO.C,D5*%
X124250080Y-99706330D03*
X124250080Y-96406330D03*
%TD*%
D17*
%TO.C,C4*%
X131762500Y-135887500D03*
X131762500Y-133987500D03*
%TD*%
D19*
%TO.C,F1*%
X106362500Y-145237178D03*
X106362500Y-143362178D03*
%TD*%
D12*
%TO.C,D3*%
X143300080Y-80656330D03*
X143300080Y-77356330D03*
%TD*%
D11*
%TO.C,R2*%
X113506250Y-143387178D03*
X113506250Y-145212178D03*
%TD*%
D20*
%TO.C,S1*%
X133275000Y-141228428D03*
X127075000Y-137528428D03*
X133275000Y-137528428D03*
X127075000Y-141228428D03*
%TD*%
D12*
%TO.C,D9*%
X143300080Y-118756330D03*
X143300080Y-115456330D03*
%TD*%
%TO.C,D6*%
X143300080Y-99706330D03*
X143300080Y-96406330D03*
%TD*%
%TO.C,D4*%
X105200080Y-99706330D03*
X105200080Y-96406330D03*
%TD*%
D18*
%TO.C,C5*%
X122081250Y-128587500D03*
X123981250Y-128587500D03*
%TD*%
D21*
%TO.C,U1*%
X110300000Y-140330928D03*
X111100000Y-140330928D03*
X111900000Y-140330928D03*
X112700000Y-140330928D03*
X113500000Y-140330928D03*
X114300000Y-140330928D03*
X115100000Y-140330928D03*
X115900000Y-140330928D03*
X116700000Y-140330928D03*
X117500000Y-140330928D03*
X118300000Y-140330928D03*
D22*
X120000000Y-138630928D03*
X120000000Y-137830928D03*
X120000000Y-137030928D03*
X120000000Y-136230928D03*
X120000000Y-135430928D03*
X120000000Y-134630928D03*
X120000000Y-133830928D03*
X120000000Y-133030928D03*
X120000000Y-132230928D03*
X120000000Y-131430928D03*
X120000000Y-130630928D03*
D21*
X118300000Y-128930928D03*
X117500000Y-128930928D03*
X116700000Y-128930928D03*
X115900000Y-128930928D03*
X115100000Y-128930928D03*
X114300000Y-128930928D03*
X113500000Y-128930928D03*
X112700000Y-128930928D03*
X111900000Y-128930928D03*
X111100000Y-128930928D03*
X110300000Y-128930928D03*
D22*
X108600000Y-130630928D03*
X108600000Y-131430928D03*
X108600000Y-132230928D03*
X108600000Y-133030928D03*
X108600000Y-133830928D03*
X108600000Y-134630928D03*
X108600000Y-135430928D03*
X108600000Y-136230928D03*
X108600000Y-137030928D03*
X108600000Y-137830928D03*
X108600000Y-138630928D03*
%TD*%
D23*
%TO.C,Y1*%
X127465000Y-131858428D03*
X125265000Y-131858428D03*
X125265000Y-133558428D03*
X127465000Y-133558428D03*
%TD*%
D24*
%TO.C,C6*%
X106518750Y-138743428D03*
X104618750Y-138743428D03*
%TD*%
D12*
%TO.C,D1*%
X105200080Y-80656330D03*
X105200080Y-77356330D03*
%TD*%
M02*
