M48
; DRILL file {KiCad (6.0.8)} date Sat Oct  8 14:38:13 2022
; FORMAT={-:-/ absolute / inch / decimal}
; #@! TF.CreationDate,2022-10-08T14:38:13-07:00
; #@! TF.GenerationSoftware,Kicad,Pcbnew,(6.0.8)
; #@! TF.FileFunction,NonPlated,1,2,NPTH
FMAT,2
INCH
; #@! TA.AperFunction,NonPlated,NPTH,ComponentDrill
T1C0.0256
; #@! TA.AperFunction,NonPlated,NPTH,ComponentDrill
T2C0.0689
; #@! TA.AperFunction,NonPlated,NPTH,ComponentDrill
T3C0.1378
; #@! TA.AperFunction,NonPlated,NPTH,ComponentDrill
T4C0.1570
%
G90
G05
T1
X4.3862Y-5.9209
X4.6138Y-5.9209
T2
X3.5667Y-3.1105
X3.5667Y-3.8605
X3.5667Y-4.6105
X3.9667Y-3.1105
X3.9667Y-3.8605
X3.9667Y-4.6105
X4.3167Y-3.1105
X4.3167Y-3.8605
X4.3167Y-4.6105
X4.7167Y-3.1105
X4.7167Y-3.8605
X4.7167Y-4.6105
X5.0667Y-3.1105
X5.0667Y-3.8605
X5.0667Y-4.6105
X5.4667Y-3.1105
X5.4667Y-3.8605
X5.4667Y-4.6105
T3
X3.375Y-2.7188
X3.375Y-5.9688
X5.6562Y-2.7188
X5.6562Y-5.9688
T4
X3.7667Y-3.1105
X3.7667Y-3.8605
X3.7667Y-4.6105
X4.5167Y-3.1105
X4.5167Y-3.8605
X4.5167Y-4.6105
X5.2667Y-3.1105
X5.2667Y-3.8605
X5.2667Y-4.6105
T0
M30
