%TF.GenerationSoftware,KiCad,Pcbnew,(6.0.8)*%
%TF.CreationDate,2022-10-08T14:38:13-07:00*%
%TF.ProjectId,9k-Keypad,396b2d4b-6579-4706-9164-2e6b69636164,rev?*%
%TF.SameCoordinates,Original*%
%TF.FileFunction,Legend,Top*%
%TF.FilePolarity,Positive*%
%FSLAX46Y46*%
G04 Gerber Fmt 4.6, Leading zero omitted, Abs format (unit mm)*
G04 Created by KiCad (PCBNEW (6.0.8)) date 2022-10-08 14:38:13*
%MOMM*%
%LPD*%
G01*
G04 APERTURE LIST*
G04 Aperture macros list*
%AMRoundRect*
0 Rectangle with rounded corners*
0 $1 Rounding radius*
0 $2 $3 $4 $5 $6 $7 $8 $9 X,Y pos of 4 corners*
0 Add a 4 corners polygon primitive as box body*
4,1,4,$2,$3,$4,$5,$6,$7,$8,$9,$2,$3,0*
0 Add four circle primitives for the rounded corners*
1,1,$1+$1,$2,$3*
1,1,$1+$1,$4,$5*
1,1,$1+$1,$6,$7*
1,1,$1+$1,$8,$9*
0 Add four rect primitives between the rounded corners*
20,1,$1+$1,$2,$3,$4,$5,0*
20,1,$1+$1,$4,$5,$6,$7,0*
20,1,$1+$1,$6,$7,$8,$9,0*
20,1,$1+$1,$8,$9,$2,$3,0*%
G04 Aperture macros list end*
%ADD10C,0.150000*%
%ADD11C,0.125000*%
%ADD12C,0.120000*%
%ADD13C,3.987800*%
%ADD14C,1.750000*%
%ADD15C,3.500000*%
%ADD16RoundRect,0.250000X-0.262500X-0.450000X0.262500X-0.450000X0.262500X0.450000X-0.262500X0.450000X0*%
%ADD17RoundRect,0.250000X-0.450000X0.262500X-0.450000X-0.262500X0.450000X-0.262500X0.450000X0.262500X0*%
%ADD18R,1.200000X0.900000*%
%ADD19RoundRect,0.250000X-0.475000X0.250000X-0.475000X-0.250000X0.475000X-0.250000X0.475000X0.250000X0*%
%ADD20RoundRect,0.250000X0.450000X-0.262500X0.450000X0.262500X-0.450000X0.262500X-0.450000X-0.262500X0*%
%ADD21C,0.650000*%
%ADD22R,0.600000X1.450000*%
%ADD23R,0.300000X1.450000*%
%ADD24O,1.000000X2.100000*%
%ADD25O,1.000000X1.600000*%
%ADD26RoundRect,0.250000X0.475000X-0.250000X0.475000X0.250000X-0.475000X0.250000X-0.475000X-0.250000X0*%
%ADD27RoundRect,0.250000X-0.250000X-0.475000X0.250000X-0.475000X0.250000X0.475000X-0.250000X0.475000X0*%
%ADD28RoundRect,0.243750X0.456250X-0.243750X0.456250X0.243750X-0.456250X0.243750X-0.456250X-0.243750X0*%
%ADD29R,1.800000X1.100000*%
%ADD30R,0.550000X1.500000*%
%ADD31R,1.500000X0.550000*%
%ADD32R,1.400000X1.200000*%
%ADD33RoundRect,0.250000X0.250000X0.475000X-0.250000X0.475000X-0.250000X-0.475000X0.250000X-0.475000X0*%
G04 APERTURE END LIST*
D10*
%TO.C,R4*%
X102227083Y-128246130D02*
X101893750Y-127769940D01*
X101655654Y-128246130D02*
X101655654Y-127246130D01*
X102036607Y-127246130D01*
X102131845Y-127293750D01*
X102179464Y-127341369D01*
X102227083Y-127436607D01*
X102227083Y-127579464D01*
X102179464Y-127674702D01*
X102131845Y-127722321D01*
X102036607Y-127769940D01*
X101655654Y-127769940D01*
X103084226Y-127579464D02*
X103084226Y-128246130D01*
X102846130Y-127198511D02*
X102608035Y-127912797D01*
X103227083Y-127912797D01*
%TO.C,R3*%
X110958333Y-147133308D02*
X110625000Y-146657118D01*
X110386904Y-147133308D02*
X110386904Y-146133308D01*
X110767857Y-146133308D01*
X110863095Y-146180928D01*
X110910714Y-146228547D01*
X110958333Y-146323785D01*
X110958333Y-146466642D01*
X110910714Y-146561880D01*
X110863095Y-146609499D01*
X110767857Y-146657118D01*
X110386904Y-146657118D01*
X111291666Y-146133308D02*
X111910714Y-146133308D01*
X111577380Y-146514261D01*
X111720238Y-146514261D01*
X111815476Y-146561880D01*
X111863095Y-146609499D01*
X111910714Y-146704737D01*
X111910714Y-146942832D01*
X111863095Y-147038070D01*
X111815476Y-147085689D01*
X111720238Y-147133308D01*
X111434523Y-147133308D01*
X111339285Y-147085689D01*
X111291666Y-147038070D01*
%TO.C,D2*%
X122702460Y-79744425D02*
X121702460Y-79744425D01*
X121702460Y-79506330D01*
X121750080Y-79363472D01*
X121845318Y-79268234D01*
X121940556Y-79220615D01*
X122131032Y-79172996D01*
X122273889Y-79172996D01*
X122464365Y-79220615D01*
X122559603Y-79268234D01*
X122654841Y-79363472D01*
X122702460Y-79506330D01*
X122702460Y-79744425D01*
X121797699Y-78792044D02*
X121750080Y-78744425D01*
X121702460Y-78649187D01*
X121702460Y-78411091D01*
X121750080Y-78315853D01*
X121797699Y-78268234D01*
X121892937Y-78220615D01*
X121988175Y-78220615D01*
X122131032Y-78268234D01*
X122702460Y-78839663D01*
X122702460Y-78220615D01*
%TO.C,C1*%
X129203333Y-130400570D02*
X129155714Y-130448189D01*
X129012857Y-130495808D01*
X128917619Y-130495808D01*
X128774761Y-130448189D01*
X128679523Y-130352951D01*
X128631904Y-130257713D01*
X128584285Y-130067237D01*
X128584285Y-129924380D01*
X128631904Y-129733904D01*
X128679523Y-129638666D01*
X128774761Y-129543428D01*
X128917619Y-129495808D01*
X129012857Y-129495808D01*
X129155714Y-129543428D01*
X129203333Y-129591047D01*
X130155714Y-130495808D02*
X129584285Y-130495808D01*
X129870000Y-130495808D02*
X129870000Y-129495808D01*
X129774761Y-129638666D01*
X129679523Y-129733904D01*
X129584285Y-129781523D01*
%TO.C,D7*%
X103652460Y-117844425D02*
X102652460Y-117844425D01*
X102652460Y-117606330D01*
X102700080Y-117463472D01*
X102795318Y-117368234D01*
X102890556Y-117320615D01*
X103081032Y-117272996D01*
X103223889Y-117272996D01*
X103414365Y-117320615D01*
X103509603Y-117368234D01*
X103604841Y-117463472D01*
X103652460Y-117606330D01*
X103652460Y-117844425D01*
X102652460Y-116939663D02*
X102652460Y-116272996D01*
X103652460Y-116701568D01*
%TO.C,D8*%
X122702460Y-117844425D02*
X121702460Y-117844425D01*
X121702460Y-117606330D01*
X121750080Y-117463472D01*
X121845318Y-117368234D01*
X121940556Y-117320615D01*
X122131032Y-117272996D01*
X122273889Y-117272996D01*
X122464365Y-117320615D01*
X122559603Y-117368234D01*
X122654841Y-117463472D01*
X122702460Y-117606330D01*
X122702460Y-117844425D01*
X122131032Y-116701568D02*
X122083413Y-116796806D01*
X122035794Y-116844425D01*
X121940556Y-116892044D01*
X121892937Y-116892044D01*
X121797699Y-116844425D01*
X121750080Y-116796806D01*
X121702460Y-116701568D01*
X121702460Y-116511091D01*
X121750080Y-116415853D01*
X121797699Y-116368234D01*
X121892937Y-116320615D01*
X121940556Y-116320615D01*
X122035794Y-116368234D01*
X122083413Y-116415853D01*
X122131032Y-116511091D01*
X122131032Y-116701568D01*
X122178651Y-116796806D01*
X122226270Y-116844425D01*
X122321508Y-116892044D01*
X122511984Y-116892044D01*
X122607222Y-116844425D01*
X122654841Y-116796806D01*
X122702460Y-116701568D01*
X122702460Y-116511091D01*
X122654841Y-116415853D01*
X122607222Y-116368234D01*
X122511984Y-116320615D01*
X122321508Y-116320615D01*
X122226270Y-116368234D01*
X122178651Y-116415853D01*
X122131032Y-116511091D01*
%TO.C,R5*%
X108577083Y-147133308D02*
X108243750Y-146657118D01*
X108005654Y-147133308D02*
X108005654Y-146133308D01*
X108386607Y-146133308D01*
X108481845Y-146180928D01*
X108529464Y-146228547D01*
X108577083Y-146323785D01*
X108577083Y-146466642D01*
X108529464Y-146561880D01*
X108481845Y-146609499D01*
X108386607Y-146657118D01*
X108005654Y-146657118D01*
X109481845Y-146133308D02*
X109005654Y-146133308D01*
X108958035Y-146609499D01*
X109005654Y-146561880D01*
X109100892Y-146514261D01*
X109338988Y-146514261D01*
X109434226Y-146561880D01*
X109481845Y-146609499D01*
X109529464Y-146704737D01*
X109529464Y-146942832D01*
X109481845Y-147038070D01*
X109434226Y-147085689D01*
X109338988Y-147133308D01*
X109100892Y-147133308D01*
X109005654Y-147085689D01*
X108958035Y-147038070D01*
%TO.C,R6*%
X120483333Y-147133308D02*
X120150000Y-146657118D01*
X119911904Y-147133308D02*
X119911904Y-146133308D01*
X120292857Y-146133308D01*
X120388095Y-146180928D01*
X120435714Y-146228547D01*
X120483333Y-146323785D01*
X120483333Y-146466642D01*
X120435714Y-146561880D01*
X120388095Y-146609499D01*
X120292857Y-146657118D01*
X119911904Y-146657118D01*
X121340476Y-146133308D02*
X121150000Y-146133308D01*
X121054761Y-146180928D01*
X121007142Y-146228547D01*
X120911904Y-146371404D01*
X120864285Y-146561880D01*
X120864285Y-146942832D01*
X120911904Y-147038070D01*
X120959523Y-147085689D01*
X121054761Y-147133308D01*
X121245238Y-147133308D01*
X121340476Y-147085689D01*
X121388095Y-147038070D01*
X121435714Y-146942832D01*
X121435714Y-146704737D01*
X121388095Y-146609499D01*
X121340476Y-146561880D01*
X121245238Y-146514261D01*
X121054761Y-146514261D01*
X120959523Y-146561880D01*
X120911904Y-146609499D01*
X120864285Y-146704737D01*
%TO.C,J1*%
X113966666Y-150854880D02*
X113966666Y-151569166D01*
X113919047Y-151712023D01*
X113823809Y-151807261D01*
X113680952Y-151854880D01*
X113585714Y-151854880D01*
X114966666Y-151854880D02*
X114395238Y-151854880D01*
X114680952Y-151854880D02*
X114680952Y-150854880D01*
X114585714Y-150997738D01*
X114490476Y-151092976D01*
X114395238Y-151140595D01*
D11*
%TO.C,C2*%
X123106666Y-135116071D02*
X123082857Y-135139880D01*
X123011428Y-135163690D01*
X122963809Y-135163690D01*
X122892380Y-135139880D01*
X122844761Y-135092261D01*
X122820952Y-135044642D01*
X122797142Y-134949404D01*
X122797142Y-134877976D01*
X122820952Y-134782738D01*
X122844761Y-134735119D01*
X122892380Y-134687500D01*
X122963809Y-134663690D01*
X123011428Y-134663690D01*
X123082857Y-134687500D01*
X123106666Y-134711309D01*
X123297142Y-134711309D02*
X123320952Y-134687500D01*
X123368571Y-134663690D01*
X123487619Y-134663690D01*
X123535238Y-134687500D01*
X123559047Y-134711309D01*
X123582857Y-134758928D01*
X123582857Y-134806547D01*
X123559047Y-134877976D01*
X123273333Y-135163690D01*
X123582857Y-135163690D01*
D10*
%TO.C,C7*%
X99845833Y-130532142D02*
X99798214Y-130579761D01*
X99655357Y-130627380D01*
X99560119Y-130627380D01*
X99417261Y-130579761D01*
X99322023Y-130484523D01*
X99274404Y-130389285D01*
X99226785Y-130198809D01*
X99226785Y-130055952D01*
X99274404Y-129865476D01*
X99322023Y-129770238D01*
X99417261Y-129675000D01*
X99560119Y-129627380D01*
X99655357Y-129627380D01*
X99798214Y-129675000D01*
X99845833Y-129722619D01*
X100179166Y-129627380D02*
X100845833Y-129627380D01*
X100417261Y-130627380D01*
%TO.C,R1*%
X122008333Y-140783308D02*
X121675000Y-140307118D01*
X121436904Y-140783308D02*
X121436904Y-139783308D01*
X121817857Y-139783308D01*
X121913095Y-139830928D01*
X121960714Y-139878547D01*
X122008333Y-139973785D01*
X122008333Y-140116642D01*
X121960714Y-140211880D01*
X121913095Y-140259499D01*
X121817857Y-140307118D01*
X121436904Y-140307118D01*
X122960714Y-140783308D02*
X122389285Y-140783308D01*
X122675000Y-140783308D02*
X122675000Y-139783308D01*
X122579761Y-139926166D01*
X122484523Y-140021404D01*
X122389285Y-140069023D01*
%TO.C,C3*%
X122070833Y-143863070D02*
X122023214Y-143910689D01*
X121880357Y-143958308D01*
X121785119Y-143958308D01*
X121642261Y-143910689D01*
X121547023Y-143815451D01*
X121499404Y-143720213D01*
X121451785Y-143529737D01*
X121451785Y-143386880D01*
X121499404Y-143196404D01*
X121547023Y-143101166D01*
X121642261Y-143005928D01*
X121785119Y-142958308D01*
X121880357Y-142958308D01*
X122023214Y-143005928D01*
X122070833Y-143053547D01*
X122404166Y-142958308D02*
X123023214Y-142958308D01*
X122689880Y-143339261D01*
X122832738Y-143339261D01*
X122927976Y-143386880D01*
X122975595Y-143434499D01*
X123023214Y-143529737D01*
X123023214Y-143767832D01*
X122975595Y-143863070D01*
X122927976Y-143910689D01*
X122832738Y-143958308D01*
X122547023Y-143958308D01*
X122451785Y-143910689D01*
X122404166Y-143863070D01*
%TO.C,D5*%
X122702460Y-98794425D02*
X121702460Y-98794425D01*
X121702460Y-98556330D01*
X121750080Y-98413472D01*
X121845318Y-98318234D01*
X121940556Y-98270615D01*
X122131032Y-98222996D01*
X122273889Y-98222996D01*
X122464365Y-98270615D01*
X122559603Y-98318234D01*
X122654841Y-98413472D01*
X122702460Y-98556330D01*
X122702460Y-98794425D01*
X121702460Y-97318234D02*
X121702460Y-97794425D01*
X122178651Y-97842044D01*
X122131032Y-97794425D01*
X122083413Y-97699187D01*
X122083413Y-97461091D01*
X122131032Y-97365853D01*
X122178651Y-97318234D01*
X122273889Y-97270615D01*
X122511984Y-97270615D01*
X122607222Y-97318234D01*
X122654841Y-97365853D01*
X122702460Y-97461091D01*
X122702460Y-97699187D01*
X122654841Y-97794425D01*
X122607222Y-97842044D01*
%TO.C,C4*%
X133977083Y-135294642D02*
X133929464Y-135342261D01*
X133786607Y-135389880D01*
X133691369Y-135389880D01*
X133548511Y-135342261D01*
X133453273Y-135247023D01*
X133405654Y-135151785D01*
X133358035Y-134961309D01*
X133358035Y-134818452D01*
X133405654Y-134627976D01*
X133453273Y-134532738D01*
X133548511Y-134437500D01*
X133691369Y-134389880D01*
X133786607Y-134389880D01*
X133929464Y-134437500D01*
X133977083Y-134485119D01*
X134834226Y-134723214D02*
X134834226Y-135389880D01*
X134596130Y-134342261D02*
X134358035Y-135056547D01*
X134977083Y-135056547D01*
%TO.C,F1*%
X106029166Y-146609499D02*
X105695833Y-146609499D01*
X105695833Y-147133308D02*
X105695833Y-146133308D01*
X106172023Y-146133308D01*
X107076785Y-147133308D02*
X106505357Y-147133308D01*
X106791071Y-147133308D02*
X106791071Y-146133308D01*
X106695833Y-146276166D01*
X106600595Y-146371404D01*
X106505357Y-146419023D01*
%TO.C,D3*%
X141752460Y-79744425D02*
X140752460Y-79744425D01*
X140752460Y-79506330D01*
X140800080Y-79363472D01*
X140895318Y-79268234D01*
X140990556Y-79220615D01*
X141181032Y-79172996D01*
X141323889Y-79172996D01*
X141514365Y-79220615D01*
X141609603Y-79268234D01*
X141704841Y-79363472D01*
X141752460Y-79506330D01*
X141752460Y-79744425D01*
X140752460Y-78839663D02*
X140752460Y-78220615D01*
X141133413Y-78553949D01*
X141133413Y-78411091D01*
X141181032Y-78315853D01*
X141228651Y-78268234D01*
X141323889Y-78220615D01*
X141561984Y-78220615D01*
X141657222Y-78268234D01*
X141704841Y-78315853D01*
X141752460Y-78411091D01*
X141752460Y-78696806D01*
X141704841Y-78792044D01*
X141657222Y-78839663D01*
%TO.C,R2*%
X113339583Y-147133308D02*
X113006250Y-146657118D01*
X112768154Y-147133308D02*
X112768154Y-146133308D01*
X113149107Y-146133308D01*
X113244345Y-146180928D01*
X113291964Y-146228547D01*
X113339583Y-146323785D01*
X113339583Y-146466642D01*
X113291964Y-146561880D01*
X113244345Y-146609499D01*
X113149107Y-146657118D01*
X112768154Y-146657118D01*
X113720535Y-146228547D02*
X113768154Y-146180928D01*
X113863392Y-146133308D01*
X114101488Y-146133308D01*
X114196726Y-146180928D01*
X114244345Y-146228547D01*
X114291964Y-146323785D01*
X114291964Y-146419023D01*
X114244345Y-146561880D01*
X113672916Y-147133308D01*
X114291964Y-147133308D01*
%TO.C,S1*%
X129413095Y-143847189D02*
X129555952Y-143894808D01*
X129794047Y-143894808D01*
X129889285Y-143847189D01*
X129936904Y-143799570D01*
X129984523Y-143704332D01*
X129984523Y-143609094D01*
X129936904Y-143513856D01*
X129889285Y-143466237D01*
X129794047Y-143418618D01*
X129603571Y-143370999D01*
X129508333Y-143323380D01*
X129460714Y-143275761D01*
X129413095Y-143180523D01*
X129413095Y-143085285D01*
X129460714Y-142990047D01*
X129508333Y-142942428D01*
X129603571Y-142894808D01*
X129841666Y-142894808D01*
X129984523Y-142942428D01*
X130936904Y-143894808D02*
X130365476Y-143894808D01*
X130651190Y-143894808D02*
X130651190Y-142894808D01*
X130555952Y-143037666D01*
X130460714Y-143132904D01*
X130365476Y-143180523D01*
%TO.C,D9*%
X141752460Y-117844425D02*
X140752460Y-117844425D01*
X140752460Y-117606330D01*
X140800080Y-117463472D01*
X140895318Y-117368234D01*
X140990556Y-117320615D01*
X141181032Y-117272996D01*
X141323889Y-117272996D01*
X141514365Y-117320615D01*
X141609603Y-117368234D01*
X141704841Y-117463472D01*
X141752460Y-117606330D01*
X141752460Y-117844425D01*
X141752460Y-116796806D02*
X141752460Y-116606330D01*
X141704841Y-116511091D01*
X141657222Y-116463472D01*
X141514365Y-116368234D01*
X141323889Y-116320615D01*
X140942937Y-116320615D01*
X140847699Y-116368234D01*
X140800080Y-116415853D01*
X140752460Y-116511091D01*
X140752460Y-116701568D01*
X140800080Y-116796806D01*
X140847699Y-116844425D01*
X140942937Y-116892044D01*
X141181032Y-116892044D01*
X141276270Y-116844425D01*
X141323889Y-116796806D01*
X141371508Y-116701568D01*
X141371508Y-116511091D01*
X141323889Y-116415853D01*
X141276270Y-116368234D01*
X141181032Y-116320615D01*
%TO.C,D6*%
X141752460Y-98794425D02*
X140752460Y-98794425D01*
X140752460Y-98556330D01*
X140800080Y-98413472D01*
X140895318Y-98318234D01*
X140990556Y-98270615D01*
X141181032Y-98222996D01*
X141323889Y-98222996D01*
X141514365Y-98270615D01*
X141609603Y-98318234D01*
X141704841Y-98413472D01*
X141752460Y-98556330D01*
X141752460Y-98794425D01*
X140752460Y-97365853D02*
X140752460Y-97556330D01*
X140800080Y-97651568D01*
X140847699Y-97699187D01*
X140990556Y-97794425D01*
X141181032Y-97842044D01*
X141561984Y-97842044D01*
X141657222Y-97794425D01*
X141704841Y-97746806D01*
X141752460Y-97651568D01*
X141752460Y-97461091D01*
X141704841Y-97365853D01*
X141657222Y-97318234D01*
X141561984Y-97270615D01*
X141323889Y-97270615D01*
X141228651Y-97318234D01*
X141181032Y-97365853D01*
X141133413Y-97461091D01*
X141133413Y-97651568D01*
X141181032Y-97746806D01*
X141228651Y-97794425D01*
X141323889Y-97842044D01*
%TO.C,D4*%
X103652460Y-98794425D02*
X102652460Y-98794425D01*
X102652460Y-98556330D01*
X102700080Y-98413472D01*
X102795318Y-98318234D01*
X102890556Y-98270615D01*
X103081032Y-98222996D01*
X103223889Y-98222996D01*
X103414365Y-98270615D01*
X103509603Y-98318234D01*
X103604841Y-98413472D01*
X103652460Y-98556330D01*
X103652460Y-98794425D01*
X102985794Y-97365853D02*
X103652460Y-97365853D01*
X102604841Y-97603949D02*
X103319127Y-97842044D01*
X103319127Y-97222996D01*
%TO.C,C5*%
X122864583Y-127264642D02*
X122816964Y-127312261D01*
X122674107Y-127359880D01*
X122578869Y-127359880D01*
X122436011Y-127312261D01*
X122340773Y-127217023D01*
X122293154Y-127121785D01*
X122245535Y-126931309D01*
X122245535Y-126788452D01*
X122293154Y-126597976D01*
X122340773Y-126502738D01*
X122436011Y-126407500D01*
X122578869Y-126359880D01*
X122674107Y-126359880D01*
X122816964Y-126407500D01*
X122864583Y-126455119D01*
X123769345Y-126359880D02*
X123293154Y-126359880D01*
X123245535Y-126836071D01*
X123293154Y-126788452D01*
X123388392Y-126740833D01*
X123626488Y-126740833D01*
X123721726Y-126788452D01*
X123769345Y-126836071D01*
X123816964Y-126931309D01*
X123816964Y-127169404D01*
X123769345Y-127264642D01*
X123721726Y-127312261D01*
X123626488Y-127359880D01*
X123388392Y-127359880D01*
X123293154Y-127312261D01*
X123245535Y-127264642D01*
%TO.C,U1*%
X113538095Y-134083308D02*
X113538095Y-134892832D01*
X113585714Y-134988070D01*
X113633333Y-135035689D01*
X113728571Y-135083308D01*
X113919047Y-135083308D01*
X114014285Y-135035689D01*
X114061904Y-134988070D01*
X114109523Y-134892832D01*
X114109523Y-134083308D01*
X115109523Y-135083308D02*
X114538095Y-135083308D01*
X114823809Y-135083308D02*
X114823809Y-134083308D01*
X114728571Y-134226166D01*
X114633333Y-134321404D01*
X114538095Y-134369023D01*
%TO.C,Y1*%
X125730059Y-130151190D02*
X125730059Y-130627380D01*
X125396726Y-129627380D02*
X125730059Y-130151190D01*
X126063392Y-129627380D01*
X126920535Y-130627380D02*
X126349107Y-130627380D01*
X126634821Y-130627380D02*
X126634821Y-129627380D01*
X126539583Y-129770238D01*
X126444345Y-129865476D01*
X126349107Y-129913095D01*
%TO.C,C6*%
X105402083Y-140780570D02*
X105354464Y-140828189D01*
X105211607Y-140875808D01*
X105116369Y-140875808D01*
X104973511Y-140828189D01*
X104878273Y-140732951D01*
X104830654Y-140637713D01*
X104783035Y-140447237D01*
X104783035Y-140304380D01*
X104830654Y-140113904D01*
X104878273Y-140018666D01*
X104973511Y-139923428D01*
X105116369Y-139875808D01*
X105211607Y-139875808D01*
X105354464Y-139923428D01*
X105402083Y-139971047D01*
X106259226Y-139875808D02*
X106068750Y-139875808D01*
X105973511Y-139923428D01*
X105925892Y-139971047D01*
X105830654Y-140113904D01*
X105783035Y-140304380D01*
X105783035Y-140685332D01*
X105830654Y-140780570D01*
X105878273Y-140828189D01*
X105973511Y-140875808D01*
X106163988Y-140875808D01*
X106259226Y-140828189D01*
X106306845Y-140780570D01*
X106354464Y-140685332D01*
X106354464Y-140447237D01*
X106306845Y-140351999D01*
X106259226Y-140304380D01*
X106163988Y-140256761D01*
X105973511Y-140256761D01*
X105878273Y-140304380D01*
X105830654Y-140351999D01*
X105783035Y-140447237D01*
%TO.C,D1*%
X103652460Y-79744425D02*
X102652460Y-79744425D01*
X102652460Y-79506330D01*
X102700080Y-79363472D01*
X102795318Y-79268234D01*
X102890556Y-79220615D01*
X103081032Y-79172996D01*
X103223889Y-79172996D01*
X103414365Y-79220615D01*
X103509603Y-79268234D01*
X103604841Y-79363472D01*
X103652460Y-79506330D01*
X103652460Y-79744425D01*
X103652460Y-78220615D02*
X103652460Y-78792044D01*
X103652460Y-78506330D02*
X102652460Y-78506330D01*
X102795318Y-78601568D01*
X102890556Y-78696806D01*
X102938175Y-78792044D01*
D12*
%TO.C,R4*%
X105341686Y-129322500D02*
X105795814Y-129322500D01*
X105341686Y-127852500D02*
X105795814Y-127852500D01*
%TO.C,R3*%
X110390000Y-144072614D02*
X110390000Y-144526742D01*
X111860000Y-144072614D02*
X111860000Y-144526742D01*
%TO.C,D2*%
X123250080Y-81256330D02*
X125250080Y-81256330D01*
X123250080Y-81256330D02*
X123250080Y-77356330D01*
X125250080Y-81256330D02*
X125250080Y-77356330D01*
%TO.C,C1*%
X128805000Y-132447176D02*
X128805000Y-132969680D01*
X130275000Y-132447176D02*
X130275000Y-132969680D01*
%TO.C,D7*%
X104200080Y-119356330D02*
X106200080Y-119356330D01*
X106200080Y-119356330D02*
X106200080Y-115456330D01*
X104200080Y-119356330D02*
X104200080Y-115456330D01*
%TO.C,D8*%
X123250080Y-119356330D02*
X125250080Y-119356330D01*
X123250080Y-119356330D02*
X123250080Y-115456330D01*
X125250080Y-119356330D02*
X125250080Y-115456330D01*
%TO.C,R5*%
X109478750Y-144526742D02*
X109478750Y-144072614D01*
X108008750Y-144526742D02*
X108008750Y-144072614D01*
%TO.C,R6*%
X117247936Y-145905000D02*
X117702064Y-145905000D01*
X117247936Y-147375000D02*
X117702064Y-147375000D01*
%TO.C,G\u002A\u002A\u002A*%
G36*
X96706858Y-130654022D02*
G01*
X96691023Y-130669857D01*
X96675187Y-130654022D01*
X96691023Y-130638186D01*
X96706858Y-130654022D01*
G37*
G36*
X92144976Y-144624399D02*
G01*
X91965194Y-144521103D01*
X91825824Y-144441227D01*
X91750374Y-144398181D01*
X91676244Y-144355753D01*
X91561547Y-144289749D01*
X91420510Y-144208372D01*
X91267361Y-144119823D01*
X91227806Y-144096923D01*
X91069197Y-144005312D01*
X90914501Y-143916384D01*
X90779575Y-143839229D01*
X90680276Y-143782935D01*
X90665649Y-143774735D01*
X90577511Y-143721799D01*
X90517226Y-143678562D01*
X90499377Y-143657794D01*
X90474134Y-143635581D01*
X90458733Y-143633781D01*
X90415356Y-143618499D01*
X90331820Y-143577403D01*
X90222072Y-143517619D01*
X90149942Y-143476034D01*
X90028489Y-143405797D01*
X89922620Y-143346772D01*
X89847461Y-143307286D01*
X89824365Y-143296790D01*
X89784489Y-143268003D01*
X89783383Y-143248676D01*
X89775011Y-143224499D01*
X89759845Y-143222060D01*
X89714574Y-143205685D01*
X89617408Y-143157328D01*
X89470437Y-143078146D01*
X89275749Y-142969291D01*
X89035432Y-142831919D01*
X88751575Y-142667183D01*
X88678305Y-142624348D01*
X88534215Y-142540633D01*
X88393428Y-142459923D01*
X88274605Y-142392862D01*
X88211426Y-142358086D01*
X88061256Y-142277214D01*
X88061251Y-141274822D01*
X89770948Y-141274822D01*
X90063903Y-141441236D01*
X90197683Y-141517708D01*
X90367720Y-141615616D01*
X90555641Y-141724341D01*
X90743070Y-141833266D01*
X90816085Y-141875856D01*
X90981352Y-141972107D01*
X91138779Y-142063298D01*
X91275351Y-142141927D01*
X91378058Y-142200493D01*
X91417831Y-142222781D01*
X91474684Y-142254358D01*
X91533467Y-142287512D01*
X91602473Y-142327057D01*
X91689994Y-142377812D01*
X91804324Y-142444592D01*
X91953755Y-142532214D01*
X92146580Y-142645495D01*
X92225437Y-142691851D01*
X92359298Y-142770199D01*
X92479884Y-142840144D01*
X92572726Y-142893332D01*
X92619075Y-142919154D01*
X92677268Y-142951485D01*
X92782700Y-143011312D01*
X92927849Y-143094297D01*
X93105194Y-143196102D01*
X93307212Y-143312387D01*
X93526383Y-143438814D01*
X93755186Y-143571045D01*
X93986097Y-143704739D01*
X94211597Y-143835560D01*
X94424163Y-143959167D01*
X94616274Y-144071223D01*
X94616584Y-144071404D01*
X94792188Y-144172806D01*
X94951242Y-144262332D01*
X95085022Y-144335258D01*
X95184801Y-144386860D01*
X95241855Y-144412415D01*
X95250000Y-144414331D01*
X95299757Y-144399159D01*
X98607108Y-144399159D01*
X98622943Y-144414994D01*
X98638778Y-144399159D01*
X98622943Y-144383323D01*
X98607108Y-144399159D01*
X95299757Y-144399159D01*
X95300210Y-144399021D01*
X95384792Y-144358534D01*
X95478202Y-144305871D01*
X95598800Y-144233985D01*
X95721555Y-144162121D01*
X95794911Y-144120032D01*
X96041941Y-143979760D01*
X96255573Y-143857149D01*
X96412584Y-143765742D01*
X99715586Y-143765742D01*
X99731422Y-143781578D01*
X99747257Y-143765742D01*
X99731422Y-143749907D01*
X99715586Y-143765742D01*
X96412584Y-143765742D01*
X96431457Y-143754755D01*
X96565246Y-143675136D01*
X96652589Y-143620850D01*
X96689140Y-143594456D01*
X96689682Y-143593722D01*
X96688088Y-143583455D01*
X96670719Y-143565849D01*
X96632746Y-143537958D01*
X96569342Y-143496836D01*
X96475677Y-143439538D01*
X96346924Y-143363118D01*
X96331346Y-143354022D01*
X100222320Y-143354022D01*
X100238155Y-143369857D01*
X100253990Y-143354022D01*
X100238155Y-143338186D01*
X100222320Y-143354022D01*
X96331346Y-143354022D01*
X96178254Y-143264629D01*
X95964838Y-143141128D01*
X95701848Y-142989667D01*
X95661721Y-142966594D01*
X95495404Y-142869583D01*
X95346678Y-142780206D01*
X95224913Y-142704304D01*
X95139478Y-142647718D01*
X95099742Y-142616292D01*
X95099564Y-142616070D01*
X95068047Y-142584721D01*
X95059975Y-142587482D01*
X95034705Y-142583538D01*
X94966020Y-142552703D01*
X94864608Y-142501027D01*
X94741160Y-142434556D01*
X94606364Y-142359340D01*
X94470909Y-142281427D01*
X94345485Y-142206864D01*
X94240779Y-142141699D01*
X94167481Y-142091982D01*
X94137107Y-142065295D01*
X94114239Y-142040424D01*
X94110336Y-142045786D01*
X94084216Y-142037212D01*
X94011457Y-142000816D01*
X93900007Y-141940904D01*
X93757818Y-141861782D01*
X93708760Y-141833822D01*
X93793143Y-141833822D01*
X93808978Y-141849657D01*
X93824813Y-141833822D01*
X93808978Y-141817987D01*
X93793143Y-141833822D01*
X93708760Y-141833822D01*
X93592839Y-141767755D01*
X93531858Y-141732512D01*
X93345121Y-141624265D01*
X93163994Y-141519365D01*
X93000359Y-141424686D01*
X92866095Y-141347103D01*
X92773082Y-141293487D01*
X92764096Y-141288323D01*
X92723326Y-141263747D01*
X95693392Y-141263747D01*
X95709227Y-141279583D01*
X95725063Y-141263747D01*
X95709227Y-141247912D01*
X95693392Y-141263747D01*
X92723326Y-141263747D01*
X92665910Y-141229137D01*
X92590708Y-141178604D01*
X92554728Y-141147637D01*
X92554695Y-141147583D01*
X92527147Y-141124727D01*
X92521427Y-141126441D01*
X92490123Y-141117083D01*
X92419658Y-141084401D01*
X92325814Y-141036595D01*
X92224372Y-140981866D01*
X92131112Y-140928412D01*
X92082918Y-140898599D01*
X92038889Y-140872160D01*
X91951415Y-140821213D01*
X91832149Y-140752496D01*
X91692746Y-140672745D01*
X91655362Y-140651444D01*
X91275312Y-140435082D01*
X91268246Y-137671631D01*
X92905392Y-137671631D01*
X92913794Y-138576050D01*
X92922195Y-139480468D01*
X93296369Y-139699225D01*
X93447336Y-139787228D01*
X93591001Y-139870514D01*
X93712232Y-139940341D01*
X93795898Y-139987966D01*
X93803102Y-139992001D01*
X93877612Y-140034180D01*
X93993366Y-140100394D01*
X94136833Y-140182874D01*
X94294482Y-140273850D01*
X94363217Y-140313621D01*
X94527055Y-140408382D01*
X94728960Y-140524975D01*
X94952074Y-140653678D01*
X95179543Y-140784767D01*
X95394510Y-140908520D01*
X95408354Y-140916484D01*
X95711552Y-141091047D01*
X96005471Y-141260552D01*
X96283340Y-141421078D01*
X96538387Y-141568701D01*
X96763839Y-141699499D01*
X96952923Y-141809547D01*
X97098868Y-141894922D01*
X97175397Y-141940079D01*
X97264801Y-141992265D01*
X97329558Y-142028325D01*
X97353506Y-142039682D01*
X97382850Y-142054874D01*
X97457902Y-142097051D01*
X97569756Y-142161115D01*
X97709506Y-142241968D01*
X97850928Y-142324385D01*
X98010288Y-142416371D01*
X98152135Y-142496019D01*
X98266931Y-142558153D01*
X98345138Y-142597595D01*
X98376015Y-142609423D01*
X98414378Y-142594388D01*
X98498162Y-142552368D01*
X98618088Y-142488319D01*
X98764877Y-142407196D01*
X98929251Y-142313956D01*
X98930254Y-142313380D01*
X99048228Y-142245543D01*
X102217581Y-142245543D01*
X102233417Y-142261378D01*
X102249252Y-142245543D01*
X102233417Y-142229707D01*
X102217581Y-142245543D01*
X99048228Y-142245543D01*
X99237957Y-142136445D01*
X99547169Y-141958192D01*
X99845796Y-141785617D01*
X100121742Y-141625715D01*
X100362913Y-141485481D01*
X100499772Y-141405572D01*
X100729719Y-141271005D01*
X100713217Y-138547507D01*
X100333167Y-138327460D01*
X100262489Y-138286690D01*
X100570699Y-138286690D01*
X100586534Y-138302525D01*
X100602369Y-138286690D01*
X100586534Y-138270854D01*
X100570699Y-138286690D01*
X100262489Y-138286690D01*
X100177933Y-138237915D01*
X100027086Y-138151491D01*
X99896748Y-138077388D01*
X99874661Y-138064994D01*
X100032295Y-138064994D01*
X100048130Y-138080830D01*
X100063965Y-138064994D01*
X100048130Y-138049159D01*
X100032295Y-138064994D01*
X99874661Y-138064994D01*
X99803038Y-138024803D01*
X99794763Y-138020234D01*
X99686073Y-137958705D01*
X99552170Y-137880547D01*
X99421692Y-137802479D01*
X99419394Y-137801082D01*
X99317030Y-137739624D01*
X99237590Y-137693421D01*
X99194703Y-137670350D01*
X99191120Y-137669109D01*
X99161065Y-137654088D01*
X99087946Y-137613435D01*
X99046696Y-137589932D01*
X99240524Y-137589932D01*
X99256359Y-137605767D01*
X99272195Y-137589932D01*
X99256359Y-137574096D01*
X99240524Y-137589932D01*
X99046696Y-137589932D01*
X98983218Y-137553764D01*
X98858335Y-137481691D01*
X98724752Y-137403832D01*
X98718086Y-137399907D01*
X98892145Y-137399907D01*
X98907980Y-137415742D01*
X98923816Y-137399907D01*
X98907980Y-137384071D01*
X98892145Y-137399907D01*
X98718086Y-137399907D01*
X98593924Y-137326800D01*
X98477304Y-137257210D01*
X98464589Y-137249541D01*
X98401759Y-137212399D01*
X98293312Y-137149164D01*
X98148586Y-137065245D01*
X97976919Y-136966048D01*
X97787647Y-136856981D01*
X97656983Y-136781851D01*
X97422484Y-136647038D01*
X97163522Y-136497996D01*
X97024848Y-136418111D01*
X100190649Y-136418111D01*
X100206484Y-136433947D01*
X100222320Y-136418111D01*
X100206484Y-136402276D01*
X100190649Y-136418111D01*
X97024848Y-136418111D01*
X96898995Y-136345612D01*
X96647798Y-136200771D01*
X96585393Y-136164745D01*
X99430549Y-136164745D01*
X99446384Y-136180580D01*
X99462220Y-136164745D01*
X99446384Y-136148909D01*
X99430549Y-136164745D01*
X96585393Y-136164745D01*
X96428827Y-136074360D01*
X96390150Y-136052009D01*
X96178283Y-135929664D01*
X96146574Y-135911378D01*
X99145512Y-135911378D01*
X99161347Y-135927214D01*
X99177182Y-135911378D01*
X99161347Y-135895543D01*
X99145512Y-135911378D01*
X96146574Y-135911378D01*
X95930752Y-135786916D01*
X95666842Y-135634874D01*
X95405835Y-135484647D01*
X95211596Y-135372974D01*
X98195387Y-135372974D01*
X98211222Y-135388810D01*
X98227058Y-135372974D01*
X98211222Y-135357139D01*
X98195387Y-135372974D01*
X95211596Y-135372974D01*
X95167016Y-135347344D01*
X95133642Y-135328172D01*
X94825661Y-135151278D01*
X98005362Y-135151278D01*
X98021197Y-135167114D01*
X98037033Y-135151278D01*
X98021197Y-135135443D01*
X98005362Y-135151278D01*
X94825661Y-135151278D01*
X94463044Y-134943003D01*
X94462373Y-134834570D01*
X97371946Y-134834570D01*
X97387781Y-134850406D01*
X97403616Y-134834570D01*
X97387781Y-134818735D01*
X97371946Y-134834570D01*
X94462373Y-134834570D01*
X94461196Y-134644545D01*
X96991896Y-134644545D01*
X97007731Y-134660381D01*
X97023566Y-134644545D01*
X97007731Y-134628710D01*
X96991896Y-134644545D01*
X94461196Y-134644545D01*
X94459877Y-134431439D01*
X94459900Y-134261221D01*
X94461988Y-134117299D01*
X94465824Y-134009713D01*
X94471093Y-133948506D01*
X94475390Y-133938555D01*
X94509350Y-133932371D01*
X94579141Y-133897620D01*
X94600643Y-133884446D01*
X95630050Y-133884446D01*
X95645886Y-133900281D01*
X95661721Y-133884446D01*
X95645886Y-133868610D01*
X95630050Y-133884446D01*
X94600643Y-133884446D01*
X94657382Y-133849682D01*
X94778742Y-133781170D01*
X94865169Y-133757582D01*
X94884910Y-133759938D01*
X94926050Y-133768184D01*
X94911442Y-133751515D01*
X94901621Y-133744486D01*
X94872885Y-133717054D01*
X94877868Y-133710741D01*
X94911801Y-133718174D01*
X94938749Y-133704758D01*
X94979226Y-133668846D01*
X95038560Y-133631435D01*
X95081539Y-133628895D01*
X95110757Y-133628753D01*
X95107341Y-133615015D01*
X95118362Y-133581649D01*
X95171206Y-133545965D01*
X95230476Y-133527252D01*
X95289976Y-133534994D01*
X95373486Y-133573318D01*
X95394688Y-133584757D01*
X95475609Y-133637764D01*
X95526564Y-133688054D01*
X95535523Y-133709595D01*
X95540274Y-133741546D01*
X95561692Y-133717938D01*
X95566709Y-133710256D01*
X95594285Y-133687810D01*
X95604710Y-133719313D01*
X95601345Y-133752199D01*
X95616647Y-133764271D01*
X95628335Y-133758822D01*
X95673880Y-133759347D01*
X95743128Y-133783793D01*
X95810229Y-133819974D01*
X95849333Y-133855703D01*
X95851746Y-133864145D01*
X95876887Y-133887920D01*
X95891520Y-133889724D01*
X95939916Y-133905646D01*
X96018428Y-133946158D01*
X96065080Y-133974180D01*
X96146931Y-134023005D01*
X96206761Y-134053525D01*
X96223249Y-134058674D01*
X96260977Y-134077587D01*
X96323605Y-134124357D01*
X96339652Y-134137851D01*
X96407941Y-134189701D01*
X96459653Y-134217179D01*
X96466335Y-134218412D01*
X96515691Y-134234681D01*
X96594893Y-134274975D01*
X96689589Y-134330178D01*
X96785432Y-134391174D01*
X96868071Y-134448847D01*
X96923156Y-134494081D01*
X96936826Y-134517307D01*
X96934703Y-134529755D01*
X96948979Y-134523127D01*
X96984805Y-134532442D01*
X97063965Y-134568343D01*
X97175536Y-134624735D01*
X97308594Y-134695519D01*
X97452217Y-134774599D01*
X97595481Y-134855878D01*
X97727461Y-134933259D01*
X97837236Y-135000644D01*
X97913881Y-135051937D01*
X97945561Y-135079385D01*
X97979066Y-135106118D01*
X97985150Y-135106477D01*
X98040511Y-135107990D01*
X98092982Y-135138977D01*
X98125458Y-135167774D01*
X98176552Y-135211095D01*
X98202689Y-135225198D01*
X98231104Y-135236164D01*
X98289389Y-135269189D01*
X98355141Y-135310563D01*
X98405956Y-135346574D01*
X98417083Y-135356407D01*
X98458886Y-135377366D01*
X98480424Y-135383267D01*
X98529253Y-135409201D01*
X98538487Y-135422856D01*
X98574841Y-135449455D01*
X98595026Y-135452151D01*
X98654189Y-135469673D01*
X98733501Y-135511291D01*
X98804424Y-135560582D01*
X98832344Y-135588726D01*
X98865401Y-135607096D01*
X98870906Y-135605293D01*
X98906228Y-135615538D01*
X98954460Y-135649784D01*
X99001216Y-135684629D01*
X99018828Y-135688399D01*
X99042961Y-135695498D01*
X99106187Y-135730011D01*
X99193633Y-135783722D01*
X99284550Y-135840760D01*
X99352114Y-135881050D01*
X99380876Y-135895543D01*
X99418396Y-135911128D01*
X99496877Y-135952862D01*
X99603636Y-136013211D01*
X99725988Y-136084644D01*
X99851250Y-136159627D01*
X99966738Y-136230628D01*
X100059770Y-136290114D01*
X100117660Y-136330552D01*
X100127307Y-136338845D01*
X100170084Y-136359234D01*
X100176136Y-136360489D01*
X100217268Y-136378094D01*
X100297908Y-136419956D01*
X100403005Y-136478155D01*
X100440192Y-136499426D01*
X100556564Y-136570209D01*
X100620514Y-136619126D01*
X100637228Y-136650637D01*
X100628894Y-136661681D01*
X100610118Y-136681891D01*
X100648720Y-136680847D01*
X100649876Y-136680664D01*
X100668615Y-136675581D01*
X100683241Y-136662280D01*
X100694262Y-136633701D01*
X100702189Y-136582785D01*
X100707530Y-136502473D01*
X100710794Y-136385705D01*
X100712490Y-136225421D01*
X100713127Y-136014562D01*
X100713217Y-135802314D01*
X100713217Y-134934017D01*
X100565942Y-134847487D01*
X100447590Y-134778787D01*
X100323230Y-134707826D01*
X100280904Y-134684034D01*
X100181354Y-134627892D01*
X100053417Y-134554935D01*
X99907715Y-134471313D01*
X99754872Y-134383175D01*
X99605509Y-134296672D01*
X99495801Y-134232825D01*
X99842270Y-134232825D01*
X99858105Y-134248660D01*
X99873941Y-134232825D01*
X99858105Y-134216989D01*
X99842270Y-134232825D01*
X99495801Y-134232825D01*
X99470248Y-134217954D01*
X99359713Y-134153170D01*
X99284525Y-134108469D01*
X99256359Y-134090872D01*
X99213376Y-134064506D01*
X99132947Y-134018845D01*
X99118887Y-134011129D01*
X102280923Y-134011129D01*
X102296758Y-134026964D01*
X102312594Y-134011129D01*
X102296758Y-133995293D01*
X102280923Y-134011129D01*
X99118887Y-134011129D01*
X99045300Y-133970746D01*
X98946719Y-133916116D01*
X102059227Y-133916116D01*
X102075063Y-133931952D01*
X102090898Y-133916116D01*
X102075063Y-133900281D01*
X102059227Y-133916116D01*
X98946719Y-133916116D01*
X98933652Y-133908875D01*
X98792730Y-133828688D01*
X98647560Y-133744474D01*
X98601908Y-133717597D01*
X98494607Y-133654560D01*
X98344942Y-133567231D01*
X98182365Y-133472725D01*
X101457482Y-133472725D01*
X101473317Y-133488560D01*
X101489153Y-133472725D01*
X101473317Y-133456889D01*
X101457482Y-133472725D01*
X98182365Y-133472725D01*
X98165455Y-133462895D01*
X97968689Y-133348841D01*
X97854275Y-133282700D01*
X100950749Y-133282700D01*
X100966584Y-133298535D01*
X100982419Y-133282700D01*
X101140773Y-133282700D01*
X101156609Y-133298535D01*
X101172444Y-133282700D01*
X101156609Y-133266864D01*
X101140773Y-133282700D01*
X100982419Y-133282700D01*
X100966584Y-133266864D01*
X100950749Y-133282700D01*
X97854275Y-133282700D01*
X97767187Y-133232356D01*
X97704489Y-133196181D01*
X97579936Y-133124346D01*
X100570699Y-133124346D01*
X100586534Y-133140181D01*
X100602369Y-133124346D01*
X100586534Y-133108510D01*
X100570699Y-133124346D01*
X97579936Y-133124346D01*
X97509351Y-133083637D01*
X97273293Y-132947474D01*
X97219467Y-132916423D01*
X100451780Y-132916423D01*
X100456113Y-132918485D01*
X100485015Y-132896190D01*
X100491522Y-132886815D01*
X100499592Y-132857206D01*
X100495260Y-132855144D01*
X100466357Y-132877439D01*
X100459851Y-132886815D01*
X100451780Y-132916423D01*
X97219467Y-132916423D01*
X97085789Y-132839308D01*
X100190649Y-132839308D01*
X100206484Y-132855144D01*
X100222320Y-132839308D01*
X100253990Y-132839308D01*
X100269826Y-132855144D01*
X100285661Y-132839308D01*
X100269826Y-132823473D01*
X100253990Y-132839308D01*
X100222320Y-132839308D01*
X100206484Y-132823473D01*
X100190649Y-132839308D01*
X97085789Y-132839308D01*
X97010260Y-132795737D01*
X96756404Y-132649283D01*
X99778928Y-132649283D01*
X99794763Y-132665119D01*
X99810599Y-132649283D01*
X99794763Y-132633448D01*
X99778928Y-132649283D01*
X96756404Y-132649283D01*
X96734193Y-132636469D01*
X96459035Y-132477713D01*
X96372166Y-132427588D01*
X96643517Y-132427588D01*
X96659352Y-132443423D01*
X96675187Y-132427588D01*
X96659352Y-132411752D01*
X96643517Y-132427588D01*
X96372166Y-132427588D01*
X96198728Y-132327511D01*
X96162626Y-132306679D01*
X95987968Y-132205892D01*
X96358479Y-132205892D01*
X96374315Y-132221727D01*
X96390150Y-132205892D01*
X96374315Y-132190056D01*
X96358479Y-132205892D01*
X95987968Y-132205892D01*
X95384249Y-131857513D01*
X98417083Y-131857513D01*
X98432918Y-131873348D01*
X98448754Y-131857513D01*
X98432918Y-131841677D01*
X98417083Y-131857513D01*
X95384249Y-131857513D01*
X95329365Y-131825842D01*
X95598379Y-131825842D01*
X95614215Y-131841677D01*
X95630050Y-131825842D01*
X95614215Y-131810007D01*
X95598379Y-131825842D01*
X95329365Y-131825842D01*
X95254180Y-131782456D01*
X94879958Y-131997329D01*
X94686282Y-132108693D01*
X94447966Y-132245982D01*
X94175162Y-132403338D01*
X93878022Y-132574901D01*
X93566694Y-132754814D01*
X93251332Y-132937217D01*
X93191397Y-132971902D01*
X92922195Y-133127706D01*
X92914385Y-134487871D01*
X92906576Y-135848037D01*
X93103522Y-135958884D01*
X93229296Y-136029463D01*
X93357248Y-136100931D01*
X93443876Y-136149058D01*
X93581689Y-136227168D01*
X93718458Y-136307920D01*
X93842314Y-136383939D01*
X93941387Y-136447850D01*
X94003807Y-136492280D01*
X94018379Y-136505977D01*
X94052401Y-136531730D01*
X94057806Y-136531997D01*
X94100896Y-136542901D01*
X94171000Y-136574006D01*
X94248439Y-136614732D01*
X94313533Y-136654499D01*
X94346602Y-136682728D01*
X94347213Y-136687587D01*
X94358890Y-136706974D01*
X94372528Y-136708660D01*
X94419478Y-136723394D01*
X94497598Y-136760679D01*
X94589536Y-136810611D01*
X94677944Y-136863281D01*
X94745470Y-136908783D01*
X94774766Y-136937212D01*
X94774938Y-136938425D01*
X94800112Y-136960160D01*
X94814670Y-136961794D01*
X94860398Y-136976187D01*
X94937910Y-137013375D01*
X95031778Y-137064371D01*
X95126577Y-137120189D01*
X95206881Y-137171843D01*
X95257264Y-137210346D01*
X95266333Y-137224913D01*
X95281550Y-137243018D01*
X95309637Y-137248401D01*
X95371352Y-137266317D01*
X95451496Y-137305068D01*
X95529422Y-137352462D01*
X95584484Y-137396311D01*
X95598379Y-137418871D01*
X95617475Y-137441712D01*
X95622133Y-137441011D01*
X95665511Y-137451283D01*
X95744899Y-137486608D01*
X95842945Y-137537904D01*
X95942300Y-137596092D01*
X96025613Y-137652093D01*
X96025936Y-137652334D01*
X96109815Y-137706744D01*
X96186597Y-137743975D01*
X96192207Y-137745863D01*
X96247370Y-137772246D01*
X96263467Y-137792648D01*
X96288710Y-137816206D01*
X96303055Y-137818408D01*
X96344809Y-137834755D01*
X96429359Y-137878232D01*
X96545787Y-137942398D01*
X96683177Y-138020807D01*
X96830611Y-138107018D01*
X96977174Y-138194588D01*
X97111949Y-138277073D01*
X97224018Y-138348030D01*
X97302465Y-138401016D01*
X97334706Y-138427287D01*
X97359661Y-138450888D01*
X97356492Y-138436968D01*
X97371208Y-138432068D01*
X97428454Y-138455192D01*
X97516634Y-138501459D01*
X97536250Y-138512648D01*
X97711799Y-138614638D01*
X97879064Y-138712967D01*
X98029141Y-138802285D01*
X98153123Y-138877245D01*
X98242102Y-138932497D01*
X98287173Y-138962692D01*
X98290399Y-138965539D01*
X98332881Y-138988039D01*
X98344785Y-138991020D01*
X98394177Y-139011900D01*
X98475411Y-139056159D01*
X98569451Y-139112208D01*
X98657260Y-139168456D01*
X98719802Y-139213313D01*
X98737332Y-139230013D01*
X98766636Y-139249277D01*
X98771479Y-139247437D01*
X98807316Y-139253684D01*
X98872452Y-139283634D01*
X98944338Y-139324606D01*
X99000423Y-139363919D01*
X99018828Y-139386535D01*
X99044466Y-139408484D01*
X99064665Y-139411004D01*
X99083407Y-139421654D01*
X99097168Y-139459363D01*
X99107010Y-139532772D01*
X99113993Y-139650521D01*
X99119178Y-139821248D01*
X99120089Y-139862313D01*
X99123104Y-140043274D01*
X99122524Y-140171800D01*
X99117343Y-140258749D01*
X99106559Y-140314975D01*
X99089166Y-140351333D01*
X99073097Y-140370202D01*
X99018078Y-140405361D01*
X98981109Y-140404897D01*
X98960405Y-140402389D01*
X98966391Y-140416492D01*
X98955783Y-140450034D01*
X98901235Y-140484245D01*
X98900025Y-140484732D01*
X98832613Y-140517406D01*
X98730726Y-140573384D01*
X98613408Y-140642093D01*
X98580659Y-140662006D01*
X98474283Y-140726338D01*
X98390004Y-140775569D01*
X98341072Y-140802029D01*
X98334418Y-140804520D01*
X98301346Y-140789113D01*
X98221905Y-140745936D01*
X98103892Y-140679557D01*
X97955107Y-140594544D01*
X97783347Y-140495464D01*
X97596411Y-140386885D01*
X97402098Y-140273375D01*
X97208207Y-140159502D01*
X97093802Y-140091927D01*
X97371946Y-140091927D01*
X97387781Y-140107762D01*
X97403616Y-140091927D01*
X97387781Y-140076091D01*
X97371946Y-140091927D01*
X97093802Y-140091927D01*
X97022535Y-140049832D01*
X96852882Y-139948935D01*
X96707045Y-139861377D01*
X96617689Y-139806889D01*
X96770200Y-139806889D01*
X96786035Y-139822725D01*
X96801871Y-139806889D01*
X96786035Y-139791054D01*
X96770200Y-139806889D01*
X96617689Y-139806889D01*
X96592824Y-139791727D01*
X96518016Y-139744551D01*
X96490441Y-139724479D01*
X96454065Y-139698025D01*
X96438003Y-139696042D01*
X96395650Y-139681152D01*
X96314555Y-139641388D01*
X96207494Y-139584105D01*
X96087237Y-139516660D01*
X95966558Y-139446408D01*
X95934294Y-139426840D01*
X98923816Y-139426840D01*
X98939651Y-139442675D01*
X98955487Y-139426840D01*
X98939651Y-139411004D01*
X98923816Y-139426840D01*
X95934294Y-139426840D01*
X95858230Y-139380707D01*
X95775026Y-139326911D01*
X95729719Y-139292377D01*
X95725063Y-139285445D01*
X95699822Y-139264093D01*
X95685474Y-139262213D01*
X95635810Y-139246111D01*
X95553538Y-139205400D01*
X95453932Y-139149347D01*
X95352268Y-139087219D01*
X95263818Y-139028281D01*
X95203856Y-138981801D01*
X95186659Y-138959596D01*
X95173350Y-138940893D01*
X95166125Y-138945918D01*
X95129809Y-138943316D01*
X95060329Y-138916000D01*
X94977270Y-138874327D01*
X94900216Y-138828652D01*
X94848750Y-138789331D01*
X94838280Y-138772554D01*
X94812714Y-138748585D01*
X94793036Y-138745917D01*
X94735095Y-138725059D01*
X94700617Y-138698411D01*
X97403616Y-138698411D01*
X97419452Y-138714246D01*
X97435287Y-138698411D01*
X97419452Y-138682575D01*
X97403616Y-138698411D01*
X94700617Y-138698411D01*
X94699154Y-138697280D01*
X94653086Y-138659251D01*
X94632890Y-138650954D01*
X94597367Y-138636731D01*
X94513978Y-138594124D01*
X94389426Y-138526906D01*
X94230416Y-138438852D01*
X94043652Y-138333736D01*
X93835840Y-138215330D01*
X93613683Y-138087408D01*
X93383886Y-137953745D01*
X93153154Y-137818115D01*
X93151325Y-137817033D01*
X92905392Y-137671631D01*
X91268246Y-137671631D01*
X91267241Y-137278529D01*
X91265856Y-136837268D01*
X91264027Y-136414330D01*
X91262463Y-136133074D01*
X93096384Y-136133074D01*
X93112220Y-136148909D01*
X93128055Y-136133074D01*
X93112220Y-136117239D01*
X93096384Y-136133074D01*
X91262463Y-136133074D01*
X91261801Y-136013962D01*
X91259223Y-135640412D01*
X91256339Y-135297926D01*
X91253196Y-134990752D01*
X91249841Y-134723137D01*
X91246318Y-134499328D01*
X91242674Y-134323573D01*
X91238955Y-134200118D01*
X91235208Y-134133211D01*
X91232967Y-134121977D01*
X91196441Y-134137775D01*
X91109630Y-134183605D01*
X90976687Y-134257116D01*
X90801766Y-134355960D01*
X90589021Y-134477786D01*
X90342605Y-134620245D01*
X90066673Y-134780988D01*
X90032232Y-134801126D01*
X89770948Y-134953967D01*
X89770948Y-141274822D01*
X88061251Y-141274822D01*
X88061237Y-138112500D01*
X88061218Y-133947787D01*
X88132230Y-133912998D01*
X88181735Y-133886386D01*
X88275823Y-133833739D01*
X88404301Y-133760838D01*
X88556981Y-133673462D01*
X88709975Y-133585310D01*
X88881066Y-133486496D01*
X89042144Y-133393608D01*
X89181585Y-133313339D01*
X89287765Y-133252381D01*
X89343392Y-133220632D01*
X89503923Y-133129146D01*
X89512161Y-133124346D01*
X89580923Y-133124346D01*
X89596758Y-133140181D01*
X89612594Y-133124346D01*
X89596758Y-133108510D01*
X89580923Y-133124346D01*
X89512161Y-133124346D01*
X89618604Y-133062323D01*
X89697084Y-133014303D01*
X89749016Y-132979227D01*
X89776870Y-132957449D01*
X89832721Y-132929749D01*
X89863965Y-132933087D01*
X89894583Y-132932852D01*
X89897631Y-132921168D01*
X89922521Y-132885779D01*
X89980314Y-132846622D01*
X90045698Y-132817115D01*
X90093359Y-132810675D01*
X90099476Y-132814179D01*
X90118031Y-132810421D01*
X90119327Y-132799461D01*
X90145296Y-132770616D01*
X90215523Y-132719616D01*
X90318486Y-132654322D01*
X90412282Y-132599559D01*
X90561752Y-132514085D01*
X90716393Y-132423816D01*
X90851819Y-132343053D01*
X90903180Y-132311651D01*
X90998199Y-132255435D01*
X91068296Y-132218963D01*
X91100387Y-132208934D01*
X91101123Y-132210310D01*
X91120764Y-132209459D01*
X91156547Y-132183475D01*
X91208127Y-132146749D01*
X91214862Y-132142550D01*
X91512843Y-132142550D01*
X91528679Y-132158386D01*
X91544514Y-132142550D01*
X91528679Y-132126715D01*
X91512843Y-132142550D01*
X91214862Y-132142550D01*
X91295928Y-132092011D01*
X91407253Y-132026355D01*
X91529406Y-131956872D01*
X91649690Y-131890653D01*
X91712405Y-131857513D01*
X91861222Y-131857513D01*
X91877058Y-131873348D01*
X91892893Y-131857513D01*
X91877058Y-131841677D01*
X91861222Y-131857513D01*
X91712405Y-131857513D01*
X91755407Y-131834790D01*
X91833861Y-131796375D01*
X91872355Y-131782499D01*
X91873774Y-131782876D01*
X91903911Y-131771182D01*
X91931118Y-131743698D01*
X91973941Y-131706081D01*
X92044355Y-131658282D01*
X92081871Y-131635817D01*
X98163716Y-131635817D01*
X98179552Y-131651653D01*
X98195387Y-131635817D01*
X98179552Y-131619982D01*
X98163716Y-131635817D01*
X92081871Y-131635817D01*
X92128100Y-131608135D01*
X92194218Y-131572475D01*
X97973691Y-131572475D01*
X97989527Y-131588311D01*
X98005362Y-131572475D01*
X97989527Y-131556640D01*
X97973691Y-131572475D01*
X92194218Y-131572475D01*
X92210914Y-131563470D01*
X92278536Y-131532122D01*
X92316704Y-131521922D01*
X92318678Y-131530851D01*
X92323506Y-131539021D01*
X92363974Y-131510105D01*
X92386810Y-131490421D01*
X92459687Y-131431627D01*
X92544047Y-131372285D01*
X92578414Y-131350780D01*
X92652993Y-131350780D01*
X92668828Y-131366615D01*
X92684664Y-131350780D01*
X92668828Y-131334944D01*
X92652993Y-131350780D01*
X92578414Y-131350780D01*
X92624872Y-131321709D01*
X92687146Y-131289210D01*
X92715850Y-131284100D01*
X92716335Y-131286089D01*
X92735693Y-131282431D01*
X92777304Y-131249083D01*
X92837469Y-131204765D01*
X92932284Y-131146780D01*
X93022753Y-131097413D01*
X93119645Y-131046118D01*
X93192089Y-131005167D01*
X93223068Y-130984474D01*
X93267258Y-130950610D01*
X93343674Y-130905150D01*
X93434479Y-130857128D01*
X93521836Y-130815576D01*
X93587909Y-130789529D01*
X93614117Y-130786426D01*
X93633239Y-130783102D01*
X93633545Y-130780705D01*
X93761472Y-130780705D01*
X93777307Y-130796540D01*
X93793143Y-130780705D01*
X93777307Y-130764869D01*
X93761472Y-130780705D01*
X93633545Y-130780705D01*
X93634788Y-130770961D01*
X93659482Y-130733953D01*
X93716925Y-130693496D01*
X93782159Y-130663243D01*
X93830228Y-130656842D01*
X93836633Y-130660563D01*
X93855150Y-130656713D01*
X93856484Y-130645491D01*
X93874288Y-130622351D01*
X93919826Y-130622351D01*
X93935661Y-130638186D01*
X93951497Y-130622351D01*
X93935661Y-130606515D01*
X93919826Y-130622351D01*
X93874288Y-130622351D01*
X93879329Y-130615799D01*
X93911505Y-130590680D01*
X94109851Y-130590680D01*
X94125686Y-130606515D01*
X94141522Y-130590680D01*
X96358479Y-130590680D01*
X96374315Y-130606515D01*
X96390150Y-130590680D01*
X96453492Y-130590680D01*
X96469327Y-130606515D01*
X96485162Y-130590680D01*
X96469327Y-130574845D01*
X96453492Y-130590680D01*
X96390150Y-130590680D01*
X96374315Y-130574845D01*
X96358479Y-130590680D01*
X94141522Y-130590680D01*
X94125686Y-130574845D01*
X94109851Y-130590680D01*
X93911505Y-130590680D01*
X93935348Y-130572066D01*
X94003918Y-130527338D01*
X96263467Y-130527338D01*
X96279302Y-130543174D01*
X96295138Y-130527338D01*
X96279302Y-130511503D01*
X96263467Y-130527338D01*
X94003918Y-130527338D01*
X94005771Y-130526129D01*
X94061199Y-130495667D01*
X94299876Y-130495667D01*
X94315711Y-130511503D01*
X94331547Y-130495667D01*
X96168454Y-130495667D01*
X96184290Y-130511503D01*
X96200125Y-130495667D01*
X96184290Y-130479832D01*
X96168454Y-130495667D01*
X94331547Y-130495667D01*
X94315711Y-130479832D01*
X94299876Y-130495667D01*
X94061199Y-130495667D01*
X94071827Y-130489826D01*
X94114744Y-130474993D01*
X94121480Y-130478384D01*
X94145093Y-130470729D01*
X94196271Y-130432329D01*
X94197972Y-130430877D01*
X94252226Y-130392035D01*
X94282333Y-130384600D01*
X94282516Y-130384820D01*
X94311520Y-130377368D01*
X94322839Y-130368984D01*
X94394888Y-130368984D01*
X94410724Y-130384820D01*
X94426559Y-130368984D01*
X94410724Y-130353149D01*
X94394888Y-130368984D01*
X94322839Y-130368984D01*
X94365089Y-130337689D01*
X94368584Y-130334591D01*
X94429231Y-130288414D01*
X94500345Y-130242301D01*
X95661721Y-130242301D01*
X95677556Y-130258136D01*
X95693392Y-130242301D01*
X95677556Y-130226465D01*
X95661721Y-130242301D01*
X94500345Y-130242301D01*
X94514403Y-130233185D01*
X94609325Y-130177167D01*
X94699224Y-130128621D01*
X94769326Y-130095809D01*
X94804857Y-130086993D01*
X94806609Y-130089648D01*
X94824765Y-130085469D01*
X94860856Y-130052276D01*
X94933292Y-130052276D01*
X94949128Y-130068111D01*
X94964963Y-130052276D01*
X94949128Y-130036441D01*
X94933292Y-130052276D01*
X94860856Y-130052276D01*
X94868707Y-130045055D01*
X94871184Y-130042412D01*
X94928123Y-129990373D01*
X94980943Y-129973841D01*
X95013108Y-129973788D01*
X95044808Y-129954804D01*
X95102091Y-129907049D01*
X95115715Y-129894611D01*
X95181464Y-129841951D01*
X95232050Y-129815483D01*
X95237713Y-129814745D01*
X95278260Y-129830227D01*
X95359830Y-129872087D01*
X95469537Y-129933443D01*
X95563721Y-129988831D01*
X95699441Y-130069172D01*
X95829505Y-130144275D01*
X95935406Y-130203539D01*
X95980607Y-130227576D01*
X96057511Y-130276211D01*
X96087754Y-130316940D01*
X96085502Y-130327586D01*
X96083091Y-130348115D01*
X96098315Y-130341514D01*
X96141391Y-130341407D01*
X96203788Y-130365725D01*
X96264625Y-130402380D01*
X96303015Y-130439285D01*
X96303907Y-130460506D01*
X96308029Y-130470207D01*
X96335691Y-130462282D01*
X96380609Y-130457566D01*
X96390150Y-130470081D01*
X96416916Y-130498410D01*
X96483071Y-130532002D01*
X96500977Y-130538854D01*
X96584086Y-130581982D01*
X96641137Y-130634600D01*
X96645084Y-130641115D01*
X96682156Y-130682855D01*
X96707689Y-130685179D01*
X96741901Y-130694450D01*
X96817842Y-130728795D01*
X96922603Y-130781234D01*
X97043279Y-130844792D01*
X97166963Y-130912491D01*
X97280748Y-130977353D01*
X97371727Y-131032401D01*
X97426994Y-131070657D01*
X97435287Y-131078518D01*
X97470502Y-131102384D01*
X97543678Y-131143152D01*
X97601559Y-131173073D01*
X97685788Y-131220465D01*
X97740381Y-131260835D01*
X97751995Y-131277873D01*
X97771659Y-131292671D01*
X97783666Y-131287438D01*
X97812936Y-131287986D01*
X97815337Y-131297971D01*
X97842072Y-131327798D01*
X97889368Y-131346658D01*
X97965565Y-131379222D01*
X98049230Y-131432798D01*
X98053602Y-131436192D01*
X98122531Y-131485006D01*
X98173183Y-131511601D01*
X98177513Y-131512661D01*
X98235265Y-131533362D01*
X98309860Y-131573497D01*
X98383631Y-131621440D01*
X98438914Y-131665562D01*
X98458045Y-131694236D01*
X98456738Y-131696453D01*
X98454603Y-131712958D01*
X98464589Y-131711359D01*
X98517052Y-131713764D01*
X98568843Y-131727109D01*
X98621604Y-131760641D01*
X98622695Y-131818655D01*
X98622192Y-131820479D01*
X98613693Y-131863264D01*
X98629602Y-131850359D01*
X98634298Y-131843700D01*
X98662390Y-131818708D01*
X98706665Y-131821196D01*
X98786204Y-131852596D01*
X98792862Y-131855587D01*
X98874952Y-131900649D01*
X98929118Y-131945261D01*
X98937562Y-131958501D01*
X98969126Y-131988123D01*
X98986934Y-131984334D01*
X99013291Y-131992763D01*
X99019313Y-132021916D01*
X99025765Y-132057908D01*
X99046577Y-132036965D01*
X99072417Y-132014443D01*
X99094343Y-132049415D01*
X99119912Y-132086148D01*
X99134437Y-132085005D01*
X99172716Y-132082735D01*
X99232021Y-132106739D01*
X99288840Y-132143450D01*
X99319659Y-132179305D01*
X99318868Y-132191405D01*
X99327054Y-132217213D01*
X99350765Y-132221727D01*
X99413137Y-132235756D01*
X99495200Y-132270426D01*
X99576102Y-132314610D01*
X99634992Y-132357183D01*
X99652245Y-132382594D01*
X99671316Y-132401674D01*
X99681362Y-132397495D01*
X99723725Y-132402687D01*
X99760539Y-132429559D01*
X99799348Y-132458609D01*
X99811562Y-132453603D01*
X99824852Y-132454366D01*
X99844070Y-132481696D01*
X99887122Y-132519522D01*
X99915479Y-132520508D01*
X99964891Y-132529113D01*
X100024874Y-132569990D01*
X100079330Y-132615426D01*
X100111527Y-132632910D01*
X100164734Y-132652789D01*
X100225560Y-132708849D01*
X100251273Y-132744296D01*
X100290444Y-132807638D01*
X100272139Y-132744296D01*
X100261121Y-132700465D01*
X100274057Y-132707834D01*
X100301419Y-132742431D01*
X100336780Y-132780162D01*
X100349003Y-132779994D01*
X100373314Y-132779612D01*
X100435055Y-132805712D01*
X100475686Y-132827278D01*
X100551236Y-132874674D01*
X100596556Y-132912630D01*
X100602369Y-132923323D01*
X100626179Y-132934895D01*
X100655374Y-132927829D01*
X100692820Y-132923627D01*
X100687408Y-132962138D01*
X100682400Y-132998936D01*
X100695371Y-132998905D01*
X100739615Y-132996635D01*
X100800348Y-133016383D01*
X100852614Y-133046666D01*
X100871454Y-133075999D01*
X100870062Y-133079282D01*
X100877719Y-133115206D01*
X100891784Y-133127051D01*
X100913996Y-133131316D01*
X100906267Y-133113404D01*
X100898276Y-133080967D01*
X100927563Y-133082870D01*
X100980211Y-133116151D01*
X101000201Y-133133388D01*
X101067528Y-133183707D01*
X101160056Y-133239782D01*
X101188280Y-133254804D01*
X101376670Y-133352734D01*
X101512015Y-133426657D01*
X101598752Y-133479178D01*
X101641313Y-133512905D01*
X101647507Y-133524727D01*
X101672996Y-133549311D01*
X101691830Y-133551902D01*
X101740292Y-133568655D01*
X101820970Y-133612129D01*
X101897691Y-133660608D01*
X101981539Y-133714146D01*
X102039936Y-133745915D01*
X102059227Y-133749567D01*
X102075701Y-133755246D01*
X102109082Y-133791298D01*
X102138567Y-133820901D01*
X102138404Y-133805268D01*
X102134507Y-133783433D01*
X102162940Y-133812694D01*
X102205783Y-133847760D01*
X102228631Y-133847004D01*
X102247616Y-133850584D01*
X102249252Y-133863332D01*
X102264988Y-133895833D01*
X102273005Y-133896856D01*
X102319338Y-133902992D01*
X102364353Y-133915427D01*
X102431948Y-133937423D01*
X102435938Y-138111722D01*
X102436469Y-138712925D01*
X102436827Y-139253947D01*
X102436977Y-139737950D01*
X102436882Y-140168094D01*
X102436508Y-140547541D01*
X102435817Y-140879451D01*
X102434773Y-141166986D01*
X102433341Y-141413307D01*
X102431485Y-141621574D01*
X102429168Y-141794949D01*
X102426354Y-141936593D01*
X102423008Y-142049667D01*
X102419093Y-142137331D01*
X102414573Y-142202747D01*
X102409413Y-142249076D01*
X102403576Y-142279479D01*
X102397025Y-142297117D01*
X102389726Y-142305150D01*
X102388109Y-142305907D01*
X102345968Y-142327182D01*
X102258036Y-142375180D01*
X102133319Y-142444859D01*
X101980825Y-142531174D01*
X101809564Y-142629083D01*
X101762285Y-142656270D01*
X101589538Y-142754931D01*
X101434906Y-142841733D01*
X101306922Y-142912012D01*
X101214114Y-142961102D01*
X101165015Y-142984337D01*
X101160150Y-142985572D01*
X101119080Y-143007256D01*
X101112344Y-143016234D01*
X101065999Y-143052384D01*
X101048100Y-143058527D01*
X100986854Y-143086874D01*
X100953388Y-143110542D01*
X100862847Y-143178242D01*
X100768975Y-143237042D01*
X100688349Y-143277726D01*
X100637546Y-143291075D01*
X100631863Y-143289334D01*
X100604178Y-143291502D01*
X100602369Y-143300492D01*
X100576797Y-143324832D01*
X100508445Y-143372466D01*
X100409862Y-143435849D01*
X100293593Y-143507433D01*
X100172188Y-143579675D01*
X100058193Y-143645028D01*
X99964156Y-143695946D01*
X99902624Y-143724883D01*
X99890651Y-143728501D01*
X99845321Y-143748008D01*
X99842270Y-143750845D01*
X99809407Y-143774661D01*
X99739646Y-143820149D01*
X99648596Y-143877636D01*
X99551868Y-143937446D01*
X99465073Y-143989907D01*
X99403821Y-144025344D01*
X99383831Y-144034944D01*
X99353289Y-144049937D01*
X99281651Y-144089928D01*
X99182199Y-144147438D01*
X99140211Y-144172132D01*
X99010560Y-144248259D01*
X98881318Y-144323384D01*
X98777568Y-144382939D01*
X98765462Y-144389795D01*
X98650410Y-144455203D01*
X98485224Y-144549774D01*
X98274535Y-144670839D01*
X98022973Y-144815733D01*
X97735168Y-144981787D01*
X97415750Y-145166335D01*
X97071073Y-145365713D01*
X96848010Y-145494784D01*
X96617070Y-145628360D01*
X96391879Y-145758564D01*
X96186061Y-145877519D01*
X96013244Y-145977348D01*
X95930923Y-146024866D01*
X95774336Y-146115247D01*
X95626503Y-146200628D01*
X95501213Y-146273041D01*
X95412255Y-146324519D01*
X95392519Y-146335962D01*
X95314004Y-146379726D01*
X95260723Y-146406072D01*
X95250000Y-146409532D01*
X95217934Y-146394452D01*
X95143171Y-146353548D01*
X95037455Y-146293376D01*
X94933292Y-146232720D01*
X94790404Y-146149122D01*
X94648949Y-146067028D01*
X94529135Y-145998135D01*
X94474065Y-145966891D01*
X94402504Y-145926222D01*
X94285789Y-145859348D01*
X94133571Y-145771824D01*
X93955500Y-145669203D01*
X93761227Y-145557041D01*
X93618953Y-145474776D01*
X93366715Y-145328917D01*
X93106311Y-145178491D01*
X92845840Y-145028161D01*
X92593396Y-144882592D01*
X92523890Y-144842550D01*
X92684664Y-144842550D01*
X92700499Y-144858386D01*
X92716335Y-144842550D01*
X92700499Y-144826715D01*
X92684664Y-144842550D01*
X92523890Y-144842550D01*
X92357076Y-144746450D01*
X92144976Y-144624399D01*
G37*
%TO.C,J1*%
X109600000Y-156890000D02*
X119000000Y-156890000D01*
X119000000Y-154990000D02*
X119000000Y-156890000D01*
X119000000Y-151090000D02*
X119000000Y-153090000D01*
X109600000Y-151090000D02*
X109600000Y-153090000D01*
X109600000Y-154990000D02*
X109600000Y-156890000D01*
%TO.C,C2*%
X123925000Y-132969680D02*
X123925000Y-132447176D01*
X122455000Y-132969680D02*
X122455000Y-132447176D01*
%TO.C,C7*%
X103128750Y-130707498D02*
X103128750Y-131230002D01*
X101658750Y-130707498D02*
X101658750Y-131230002D01*
%TO.C,R1*%
X124560000Y-140557992D02*
X124560000Y-140103864D01*
X123090000Y-140557992D02*
X123090000Y-140103864D01*
%TO.C,C3*%
X118801248Y-144240928D02*
X119323752Y-144240928D01*
X118801248Y-142770928D02*
X119323752Y-142770928D01*
%TO.C,D5*%
X125250080Y-100306330D02*
X125250080Y-96406330D01*
X123250080Y-100306330D02*
X125250080Y-100306330D01*
X123250080Y-100306330D02*
X123250080Y-96406330D01*
%TO.C,C4*%
X132497500Y-135198752D02*
X132497500Y-134676248D01*
X131027500Y-135198752D02*
X131027500Y-134676248D01*
%TO.C,F1*%
X105652500Y-144558256D02*
X105652500Y-144041100D01*
X107072500Y-144558256D02*
X107072500Y-144041100D01*
%TO.C,D3*%
X142300080Y-81256330D02*
X144300080Y-81256330D01*
X144300080Y-81256330D02*
X144300080Y-77356330D01*
X142300080Y-81256330D02*
X142300080Y-77356330D01*
%TO.C,R2*%
X112771250Y-144072614D02*
X112771250Y-144526742D01*
X114241250Y-144072614D02*
X114241250Y-144526742D01*
D10*
%TO.C,S1*%
X127575000Y-141978428D02*
X127575000Y-136778428D01*
X127575000Y-136778428D02*
X132775000Y-136778428D01*
X132775000Y-136778428D02*
X132775000Y-141978428D01*
X132775000Y-141978428D02*
X127575000Y-141978428D01*
X131175000Y-139378428D02*
G75*
G03*
X131175000Y-139378428I-1000000J0D01*
G01*
D12*
%TO.C,D9*%
X142300080Y-119356330D02*
X142300080Y-115456330D01*
X142300080Y-119356330D02*
X144300080Y-119356330D01*
X144300080Y-119356330D02*
X144300080Y-115456330D01*
%TO.C,D6*%
X142300080Y-100306330D02*
X142300080Y-96406330D01*
X144300080Y-100306330D02*
X144300080Y-96406330D01*
X142300080Y-100306330D02*
X144300080Y-100306330D01*
%TO.C,D4*%
X104200080Y-100306330D02*
X106200080Y-100306330D01*
X104200080Y-100306330D02*
X104200080Y-96406330D01*
X106200080Y-100306330D02*
X106200080Y-96406330D01*
%TO.C,C5*%
X122769998Y-129322500D02*
X123292502Y-129322500D01*
X122769998Y-127852500D02*
X123292502Y-127852500D01*
D10*
%TO.C,U1*%
X109125000Y-129455928D02*
X109125000Y-130130928D01*
X109700000Y-139805928D02*
X109700000Y-141080928D01*
X109125000Y-139805928D02*
X109125000Y-139130928D01*
X109125000Y-139805928D02*
X109700000Y-139805928D01*
X119475000Y-129455928D02*
X118800000Y-129455928D01*
X119475000Y-139805928D02*
X118800000Y-139805928D01*
X119475000Y-139805928D02*
X119475000Y-139130928D01*
X109125000Y-129455928D02*
X109800000Y-129455928D01*
X119475000Y-129455928D02*
X119475000Y-130130928D01*
D12*
%TO.C,Y1*%
X128365000Y-134358428D02*
X128365000Y-131058428D01*
X128365000Y-131058428D02*
X124365000Y-131058428D01*
%TO.C,C6*%
X105830002Y-139478428D02*
X105307498Y-139478428D01*
X105830002Y-138008428D02*
X105307498Y-138008428D01*
%TO.C,D1*%
X106200080Y-81256330D02*
X106200080Y-77356330D01*
X104200080Y-81256330D02*
X104200080Y-77356330D01*
X104200080Y-81256330D02*
X106200080Y-81256330D01*
%TD*%
%LPC*%
D13*
%TO.C,MX5*%
X114725080Y-98056330D03*
D14*
X109645080Y-98056330D03*
X119805080Y-98056330D03*
%TD*%
D15*
%TO.C,REF\u002A\u002A*%
X85725000Y-69056250D03*
%TD*%
D16*
%TO.C,R4*%
X104656250Y-128587500D03*
X106481250Y-128587500D03*
%TD*%
D13*
%TO.C,MX8*%
X114725080Y-117106330D03*
D14*
X119805080Y-117106330D03*
X109645080Y-117106330D03*
%TD*%
D17*
%TO.C,R3*%
X111125000Y-143387178D03*
X111125000Y-145212178D03*
%TD*%
D18*
%TO.C,D2*%
X124250080Y-80656330D03*
X124250080Y-77356330D03*
%TD*%
D13*
%TO.C,MX7*%
X95675080Y-117106330D03*
D14*
X90595080Y-117106330D03*
X100755080Y-117106330D03*
%TD*%
D15*
%TO.C,REF\u002A\u002A*%
X143668750Y-151606250D03*
%TD*%
D19*
%TO.C,C1*%
X129540000Y-131758428D03*
X129540000Y-133658428D03*
%TD*%
D18*
%TO.C,D7*%
X105200080Y-118756330D03*
X105200080Y-115456330D03*
%TD*%
%TO.C,D8*%
X124250080Y-118756330D03*
X124250080Y-115456330D03*
%TD*%
D20*
%TO.C,R5*%
X108743750Y-145212178D03*
X108743750Y-143387178D03*
%TD*%
D16*
%TO.C,R6*%
X116562500Y-146640000D03*
X118387500Y-146640000D03*
%TD*%
D13*
%TO.C,MX9*%
X133775080Y-117106330D03*
D14*
X128695080Y-117106330D03*
X138855080Y-117106330D03*
%TD*%
D13*
%TO.C,MX3*%
X133775080Y-79006330D03*
D14*
X138855080Y-79006330D03*
X128695080Y-79006330D03*
%TD*%
D21*
%TO.C,J1*%
X117190000Y-150390000D03*
X111410000Y-150390000D03*
D22*
X111050000Y-148945000D03*
X111850000Y-148945000D03*
D23*
X113050000Y-148945000D03*
X114050000Y-148945000D03*
X114550000Y-148945000D03*
X115550000Y-148945000D03*
D22*
X116750000Y-148945000D03*
X117550000Y-148945000D03*
X117550000Y-148945000D03*
X116750000Y-148945000D03*
D23*
X116050000Y-148945000D03*
X115050000Y-148945000D03*
X113550000Y-148945000D03*
X112550000Y-148945000D03*
D22*
X111850000Y-148945000D03*
X111050000Y-148945000D03*
D24*
X118620000Y-149860000D03*
D25*
X109980000Y-154040000D03*
X118620000Y-154040000D03*
D24*
X109980000Y-149860000D03*
%TD*%
D26*
%TO.C,C2*%
X123190000Y-133658428D03*
X123190000Y-131758428D03*
%TD*%
D14*
%TO.C,MX6*%
X128695080Y-98056330D03*
X138855080Y-98056330D03*
D13*
X133775080Y-98056330D03*
%TD*%
D15*
%TO.C,REF\u002A\u002A*%
X143668750Y-69056250D03*
%TD*%
%TO.C,REF\u002A\u002A*%
X85725000Y-151606250D03*
%TD*%
D19*
%TO.C,C7*%
X102393750Y-130018750D03*
X102393750Y-131918750D03*
%TD*%
D20*
%TO.C,R1*%
X123825000Y-141243428D03*
X123825000Y-139418428D03*
%TD*%
D27*
%TO.C,C3*%
X118112500Y-143505928D03*
X120012500Y-143505928D03*
%TD*%
D18*
%TO.C,D5*%
X124250080Y-99706330D03*
X124250080Y-96406330D03*
%TD*%
D26*
%TO.C,C4*%
X131762500Y-135887500D03*
X131762500Y-133987500D03*
%TD*%
D28*
%TO.C,F1*%
X106362500Y-145237178D03*
X106362500Y-143362178D03*
%TD*%
D18*
%TO.C,D3*%
X143300080Y-80656330D03*
X143300080Y-77356330D03*
%TD*%
D17*
%TO.C,R2*%
X113506250Y-143387178D03*
X113506250Y-145212178D03*
%TD*%
D29*
%TO.C,S1*%
X133275000Y-141228428D03*
X127075000Y-137528428D03*
X133275000Y-137528428D03*
X127075000Y-141228428D03*
%TD*%
D18*
%TO.C,D9*%
X143300080Y-118756330D03*
X143300080Y-115456330D03*
%TD*%
%TO.C,D6*%
X143300080Y-99706330D03*
X143300080Y-96406330D03*
%TD*%
%TO.C,D4*%
X105200080Y-99706330D03*
X105200080Y-96406330D03*
%TD*%
D14*
%TO.C,MX2*%
X119805080Y-79006330D03*
D13*
X114725080Y-79006330D03*
D14*
X109645080Y-79006330D03*
%TD*%
%TO.C,MX4*%
X100755080Y-98056330D03*
X90595080Y-98056330D03*
D13*
X95675080Y-98056330D03*
%TD*%
D27*
%TO.C,C5*%
X122081250Y-128587500D03*
X123981250Y-128587500D03*
%TD*%
D30*
%TO.C,U1*%
X110300000Y-140330928D03*
X111100000Y-140330928D03*
X111900000Y-140330928D03*
X112700000Y-140330928D03*
X113500000Y-140330928D03*
X114300000Y-140330928D03*
X115100000Y-140330928D03*
X115900000Y-140330928D03*
X116700000Y-140330928D03*
X117500000Y-140330928D03*
X118300000Y-140330928D03*
D31*
X120000000Y-138630928D03*
X120000000Y-137830928D03*
X120000000Y-137030928D03*
X120000000Y-136230928D03*
X120000000Y-135430928D03*
X120000000Y-134630928D03*
X120000000Y-133830928D03*
X120000000Y-133030928D03*
X120000000Y-132230928D03*
X120000000Y-131430928D03*
X120000000Y-130630928D03*
D30*
X118300000Y-128930928D03*
X117500000Y-128930928D03*
X116700000Y-128930928D03*
X115900000Y-128930928D03*
X115100000Y-128930928D03*
X114300000Y-128930928D03*
X113500000Y-128930928D03*
X112700000Y-128930928D03*
X111900000Y-128930928D03*
X111100000Y-128930928D03*
X110300000Y-128930928D03*
D31*
X108600000Y-130630928D03*
X108600000Y-131430928D03*
X108600000Y-132230928D03*
X108600000Y-133030928D03*
X108600000Y-133830928D03*
X108600000Y-134630928D03*
X108600000Y-135430928D03*
X108600000Y-136230928D03*
X108600000Y-137030928D03*
X108600000Y-137830928D03*
X108600000Y-138630928D03*
%TD*%
D32*
%TO.C,Y1*%
X127465000Y-131858428D03*
X125265000Y-131858428D03*
X125265000Y-133558428D03*
X127465000Y-133558428D03*
%TD*%
D33*
%TO.C,C6*%
X106518750Y-138743428D03*
X104618750Y-138743428D03*
%TD*%
D18*
%TO.C,D1*%
X105200080Y-80656330D03*
X105200080Y-77356330D03*
%TD*%
D14*
%TO.C,MX1*%
X100755080Y-79006330D03*
X90595080Y-79006330D03*
D13*
X95675080Y-79006330D03*
%TD*%
M02*
